<svg id="Laag_1" data-name="Laag 1" xmlns="http://www.w3.org/2000/svg" xmlns:xlink="http://www.w3.org/1999/xlink" viewBox="0 0 526.02 842.49"><defs><style>.cls-1{fill:none;}.cls-2{clip-path:url(#clip-path);}.cls-3{fill:#ffecb3;}.cls-4{fill:#2980b9;}.cls-5{fill:#558b2f;}.cls-6{fill:#e74c3c;}</style><clipPath id="clip-path" transform="translate(0 0)"><rect class="cls-1" width="526.02" height="841.89"/></clipPath></defs><title>vector_oderdelta_omtrek</title><g class="cls-2"><path id="Platteland" class="cls-3" d="M0,0V841.89H526V544.83s-2.37-4.75-2.78-7S526,526,526,526v-3.53s-4.66.69-4.41-4.89-3.13-5.77-3.13-5.77l-.88-1.07s-1.22-3.87,1.37-5.63,7-1.08,7-1.08V184.39a9.83,9.83,0,0,0-4.8.05c-2.38.7-10.08,2.73-22.7,12.52,0,0-25.82-.79-29.74,25.43,0,0-8.67,5-12.91,2.25,0,0-10.37,1.53-18.78,6.75s-23.87-4.69-23.87-4.69a15.23,15.23,0,0,0-4-2.06c-1.56-.36-2.46,4.63-2.46,4.63s-.91,5.11-5.33,5.42-3.37,3.4-3.37,3.4,4.16,7,7.32,5.61,2,5,2,5-.39,6.87.46,8.44,8.27-1.71,8.27-1.71,8.89-7.05,11.63-6.79,14.15-6.25,14.15-6.25,11.68-5,13.11-.4-3.52,13.44-3.52,13.44-1,2.48,3.72,2.93,10.33.36,10.33.36,19.18,1.7,20.48,2.22c0,0,12,1.7,12.88,3s5.85,1.07,5.85,1.07,7.36,2.79,7.36,7.19,9,8.12,9,8.12,3.72-.58.29,5.77c0,0-1.66,2.45.69,5.87s.78,17.53.78,17.53a4,4,0,0,0,.69,3.6c1.36,1.77-3.53,8-3.53,8s-11.54.88-15.84,6.75-3,16.43-3,16.43a27.64,27.64,0,0,1-3.42,14.48c-4,6.85,6.55,19,6.55,19a27.91,27.91,0,0,0,6.36,4.2c3.33,1.47,10.76,1.47,10.76,1.47s2.45-.29,1.08,3.82,1.27,9.49,1.27,9.49,1.17.78-2.25,5-3.13,17.32-3.13,17.32-.78,12.91.78,17.8,3,8,4.41,8.71,1.76,6.46,1.76,6.46,2.34,9-8.71-7.34-7-28.27-7-28.27-.88-27-26.42-40.31c0,0-12.52-3.71-33.55-5.77,0,0-3.13,8.38-27.91-34.66,0,0-5.61-7.44-12.13-2.87s4.82,12.72,5.73,15,4.31,8-3.52,10.33-27.65-.91-27.65-.91-3.78-3.65,9-12.13S399,326.22,399,326.22s-2.35-10.83-13.3-4.83a75.26,75.26,0,0,1-9,7.18s-8.78,3.1-11.34,3.83-12.27-1-15.86,1.19S326,321.26,315.13,319.17s-29.35-16.43-29.35-16.43a27,27,0,0,0-15.29-10.11c-9.88-2.15-10-14-10-14L259,269.94s22.44-5.78,31.31-1.36,27.39-15.8,27.39-15.8,16.83-6.91,22.83-1.82,30,1.3,30,1.3,10-2.22,17.73,9.13,22.28,23.9,28.34,23.9,11.25-7.14,11.25-7.14,11.54-6.75,13.89-5.38,6.85-7.35-2-7.88-8.41-11.29-15-8S412,268.47,410.64,267.49s-3.56-.78-6.07-9-8.64-15.62-8.64-15.62-2.11-9.82,3.72-9.39c0,0,3.19-2.5,3.78-4s1.75-4.6.77-4.8a4.84,4.84,0,0,0-1.65-.13c-.84,0-7.1-.06-8-1.56s-9.68-5.82-9.68-5.82-3.29-1.39-6-.8a3.12,3.12,0,0,0,.12-3.13c-.88-1.74-4-2.35-4-2.35s-3.92-1.19-5.48-4.63c0,0-.38-3.27-2.49-5A9.52,9.52,0,0,1,361,195s-.11-2-1.84-1.65-1.2-.5-1.2-.5.63-2.91-4.93-9.23-22.83-23.47-28-27S315,144.52,315,144.52s-8.22-8.41-15-9a8,8,0,0,1-4-1.45c-1.87-1.37-17.93-11.64-26.8-14.64,0,0-27.39-28.18-26.48-47.61l-8.15-.65s-9.59,3.55-10.05,3.65-20.28,3.78-18.45-3.65S182,87.29,182,87.29s-12.23,8.42-22.5,7.24-31.11,5-31.11,5a4,4,0,0,0-2,2.64c-.29,1.76.2,6.17,2.84,8.32s3.52,7.53,3.52,7.53,5.18,10.57-5.48,5.48-9.68-9.2-9.68-9.2a9.37,9.37,0,0,0-4-4.06c-2.6-1.12-1.23-12.08-1.23-12.08s-.18-5.54-4.15-7.24S103,84.65,103,84.65a17.83,17.83,0,0,1,1.44-8.41c1.89-4,5.09-3.72-2.35-10.11s-4,0-4,0,2.94,10.89-4.63.78-15.21-3.68-15.21-3.68-3.91,3.08-5.53-5.82-9-18.15-9-18.15S52,29.09,67,29.35s24,6.13,24,6.13,13.31,2.35,15.79-3.26,5-8.74-2.87-14.09-3.79-10.69-3.79-10.69l4-7.44Z" transform="translate(0 0)"/><g id="Water"><path class="cls-4" d="M353.77,835.41s-7-17.75-4.43-30.37,23.08-21.62,23.08-21.62,32.38-16.07,38.22-26.51,16.4-11.47,21.1-36.39S438.39,690,438.39,690s2.35-2.22-6-9.65,15-34.7,15-34.7,5.29-17.28,10.6-24.32,7.27-31.82,7.27-31.82,4.89-14.94,11.94-16.51,16-28.17,16-28.17,2.59-2.34,5-9.34,1.1-13.1,9.91-17.08c0,0,4.5-1,9.49-7.72l.88,1.07s-5.09,7-10.18,9.29c0,0-3,.59-3.71,2.25s-3.13,2.25-4,11.06-6.66,15.94-6.66,15.94-2.54,2.06-5.77,10.18a37.69,37.69,0,0,1-8.51,12.91s-5.87,2.94-5.67,5.19c0,0-2.74,5.74-4.6,5.57s-3.23,11.15-3.23,11.15-.49,10.08-1.66,13.11-4.6,12.23-4.6,12.23-6.65,11.15-6.85,13-3.42,9.39-3.42,9.39a14.29,14.29,0,0,1-4,7.54c-3.33,3-10.37,16.72-10.37,16.72s-4.57,9.1-1.6,9.89a32.62,32.62,0,0,0,5.41,5c2.25,1.37,5-4.3,5-4.3a96.1,96.1,0,0,0,5.48-16c2.15-8.8,17.9-26.21,17.9-26.21s7.54-3.52,9-22.89,10.57-27,10.57-27,1.07,0,4.11-6.07,11.74-18.88,11.74-18.88,7.43-9.88,12-13.11,6.94-15.83,6.94-15.83,3.45-8.23,4.22-9.51V526s-3.14,10.27-2.75,12.22a42.87,42.87,0,0,0,2.75,6.66s-6.07,6.65-9.2,9.39-1.38.18-7.69,7.33-7.58,10.08-7.58,10.08-6.94,10.76-9.29,16.63a22.79,22.79,0,0,1-6.06,7c-4.11,3.14-7.34,15.07-7.34,15.07s-2.16,12-3.19,16.24-7.38,11-7.38,11-6.75,7.05-8.12,10.08-6.06,6.6-8.51,14.6-7.92,21.2-7.92,21.2-4.56,15.1-6.13,24.14-2.67,14.31-2.48,17.93-5.48,8.12-5.48,8.12-2.1,3.57-1.76,6.8c0,0,.54,1.58-3,2.74a33.93,33.93,0,0,0-6.8,8.51c-2.5,4.74-7.34,10.42-22.7,23.43,0,0-12.22,7.14-19.86,9.58s-18.29,14.87-18.29,14.87-3,5.87-3.72,7.34-2.54,6.46-1.46,8.32c0,0-.49,6.75,3.52,15.26,0,0,3.62,9.69,3.32,11.35l-2.05,0a33.69,33.69,0,0,0-3.1-6.48" transform="translate(0 0)"/><path class="cls-4" d="M300.52,827.22l7.94-3.24s2.72-8.66-11.95-10.13c0,0-6.65-7.83-2-16.05s-8.7.59-8.7.59-.49,3.52,2.54,3.33-.49,4.89-.49,4.89-2.35,3.13-.1,5-2.44,5.18-2.44,5.18-2.25,2.35,1.47,2,3,3.42,3,3.42-.36,2.16,2-.58,8.64,5.64,8.64,5.64" transform="translate(0 0)"/><path class="cls-4" d="M210.82,782.1s5.91,12.28,9.83,11.79c0,0,1.2-.28.7.33a4.56,4.56,0,0,1,3.34.24s6.67-.23,6.38-5.56-5.83-9.34-5.83-9.34-5.52-3.91-9.78-.93-5.72,1.39-4.64,3.47" transform="translate(0 0)"/><path class="cls-4" d="M250.34,685.3s-1.18-9,3.91-14.87c0,0,1.37-2.93.68-8.21s4.41-6.17,4.41-6.17a36.82,36.82,0,0,0,2-8.41c.3-3.91,4.21-3.32,4.21-3.32s2.25-7.15-1.57-4-6.65,8.61-6.45,9.4-4.31,5.47-5.58,3.81-5.28,13.5-5.28,13.5a3,3,0,0,0,1.17,3.91c2.35,1.47,1.18,9.79,1.08,11s-1.76,4.5,1.47,3.42" transform="translate(0 0)"/><path class="cls-4" d="M249.55,623.28s2,4.89,5.09,2.45,5.09-11.91,5.09-11.91,1.15-10.69-3.49-15.48a6.49,6.49,0,0,1-2-4,4.94,4.94,0,0,1-1-1c-.36-.56-1.39-3.67-3.53-4.33,0,0-1.23-.72-3,.71,0,0-.62,5.72.42,6.37s1.14,8.91,1.14,8.91.1,14.51,1.27,18.32" transform="translate(0 0)"/><path class="cls-4" d="M4.6,477.91s-2.55,11.84,6.75,8.81,15.26-13.6,15.26-13.6.59-.78.68-4.21,2.06-3.81,2.06-3.81a13.09,13.09,0,0,0,5.08-10.47c.1-7.14,4.7-5.67,4.7-5.67a2.11,2.11,0,0,0,0-3.23c-1.76-1.66-.6-2.55-.6-2.55a37.1,37.1,0,0,0-4.1-.07L30.1,443c-.13,0-2.12,7.08-4.37,8.45s-2.47,9.24-2.47,9.24-2.13,3.58-3.7,4-5.77,7.43-7.23,9.19-7.42.59-7.73,4.11" transform="translate(0 0)"/><path class="cls-4" d="M98.61,594s-.13,4.17,1.82,2,4.7-6.66,6.27-3.79,1.82,4.18,6.13.13,9.78-7.3,1.69-7.95-10.82-2.48-3.39-6.91,17.22-10.31,6.13-6.79-15.78,8.09-15.78,8.09-2.74,2.57-2.87,4.35-1.44,7.78,0,10.91" transform="translate(0 0)"/><path class="cls-4" d="M142.83,548.35s8.21-5.28,10.95-11.15,13.3-8.61,13.3-8.61,3.9-7.44-6.56-1.57-11.37,7.48-13,4.91-4.33-3.15-4.72,5.66-2.55,9.39,0,10.76" transform="translate(0 0)"/><path class="cls-4" d="M196.17,387.65s3.79-12,10.57-6,15.13,22.18,11.48,26.35S195,390.44,196.17,387.65" transform="translate(0 0)"/><path class="cls-4" d="M0,189.26s7.17-1.17,8.74,0,6.13,5.09,10.17,5.22,11.74,1,12.79,0,16.17-4.7,21-2.09S67.3,201,67.83,204.78s19,20.61,19,20.61,14.22,1.31,19.7,0,10.56,7.7,10.56,7.7,6,8.74,10.57,10.3,20.34,2.35,22.56,3.91,10.7,3.53,14.74,7.18,24.91,5,31.7,4.24,7,2.75,7,2.75.09,2.45,6.3-1.07a10.36,10.36,0,0,1,11.15.24s12,3.87,15.69,1.66,5.35,6.27,5.35,6.27,0,2.6,7.56,3.65a15,15,0,0,1,10.7,6.39L259,269.93s-14.76-8.31-11.59-17.6c0,0,3.12-6,19.42-5.29s18.2-30.79,18.2-30.79-1.57-5.21-5.87-15.38-14.09-8.41-1.18-16.24,18.8,6.26,19,10.17,24.45,6.27,24.45,6.27,6-5.9,2.54-20.94-3.24-14.75-3.24-14.75-2.31-4.41-3.42-1.68c0,0-1,3.71-1.88,5.93s-3.26,1.44-3.26,1.44-2.42,1.23-3.07-6.07A71.07,71.07,0,0,0,307,152.74s.06-4.38-1.63-5.51-2.34-3.49-6.06-5.06c0,0-8.78-.74-13.7-3.89,0,0-6.48-2.1-6.48,3.55s2.47,14.43,2.47,14.43.29,3-5.28,7.44-15.95,8.41-16.53,11.34-4.5-.78-4.41-2.54-1.27-1.47,1.76-6,11.94-16.17,5.09-18.21-24.94,12.15-25.63,15.77-11.44-2.74-11.12-5.16,5.61-10,9.07-11.47,5.28-17,5.28-17,4.7-10.17,3.2-15.19-10.31-8-11.94-12.72,3.52-9.13,3.85-14-.39-17.35-.39-17.35-5.48,2.08-10.05,3.65c0,0-2.15,10.83-1,17.61s5.47,16.82,10.69,19.17,5.35,5.28,5.35,5.28-.07,6.59-3,10.77c0,0-2.81,6.26-2.15,10.63s-8.09,11.74-8.09,11.74a10.58,10.58,0,0,0-4.63,8.47c-.39,6.07,10,14.09,10,14.09s14.68,5.54,15.79,10.83,7.36,10.43,7.36,10.43a85,85,0,0,0,1.64,9.07c1.3,5.8,13.95,6.91,13.95,6.91s7.83.13,3.33,16.76c0,0-2.15,4-8.55,4a15.1,15.1,0,0,0-7,6.85c-2.35,4.89-13,5.22-13,5.22s-7,7.34-10.11,5.87-16.82-2.48-26.67.91-16.76-1.11-16.76-1.11a18.08,18.08,0,0,0-11.81,3c-5.73,3.92-21-2.87-21.71-3.26s-13.31-7.11-17.61-7.63-18-4.38-19.7-9.67-11.15-9.93-26.41-9.53-25.14-23.39-25.14-23.39-6.07-10.07-17-10.66-26.51,4.21-26.51,4.21-7.24,1.47-14.19-5.09-11.64-3-11.64-3Z" transform="translate(0 0)"/><path class="cls-4" d="M427.82,734s-31.95-16.38-39.78-34.9-36.17-20.2-36.17-20.2-1.65.24-5-4.71-11.43-20.49-10-36,3.17-26.34,6.83-33.91S384.91,571,384.91,571s8.61-10.43,10.57-27.52-12.26-32.83-12.26-32.83-15.92-23.12-14.48-33.95,8.61-26.35,14.09-30.39,4.86-25.13,4.86-25.13-4.51-3.92-6.12-3.68,1,17.46-1.09,21.37-10.83,17.35-14.09,26.22-3.88,18.52-1,21.52,6.77,12.92,6.77,12.92,10.7,15.91,12.26,17.34,8.61,11.77,4.7,19.65a54.88,54.88,0,0,0-3.65,11.79c-1,5.87-.59,14.37-7.83,19.61,0,0-3.17,4.84-12.25,11.11s-25.51,24.65-25.51,24.65-7.05,17.22-7.63,29.54,0,22.44,0,22.44.58,9.06,6.85,15.91,13.5,13.91,13.5,13.91,8.42,6.88,15.84,3.7,23.48,21.72,23.48,21.72,28,29.26,34.52,26.07" transform="translate(0 0)"/></g><g id="Bos"><path class="cls-5" d="M308,325.3s-2.87-10.43-7.57-8.87-29.74-7.82-54.78-6.78,6.78,26.09,6.78,26.09,10,6.78,19.59,6.26-9,9.91-9,9.91-4.36,9.39,12.86,2.61,12.52,8.35,12.52,8.35-7.82,4.7,0,7.83S291.52,389,291.52,389s-33.39,1.56-62.09,14.08,17.74,17.29,17.74,17.29,7.83,1.5-3.65,5.15S227.87,437,227.87,437s6.63,6.78,35.14,0,69.21,20.34,69.21,20.34,26.08,17.74,30.26,0-18.26-21.91-18.26-21.91-15.13-13,12.52-19.3,37,12,37,12,.52,11-15.13,30.26,7.83,53.22,7.83,55.3,10.43,5.74,19.3-30.78S424,492.78,424,492.78s5.22-.52-6.26,15.65,7.45,21.4,7.45,21.4,11.34,10.43,19.68-15.13,28.7-10.44,28.7-10.44,16.69.52,30.78-25,0-24.52,0-24.52-35.48-8.87-23.48-15.66,12-48.52,12-48.52-4.17-18.26-44.34-18.26c0,0-10.44,4.17-14.09-9.39s-23.84-.52-23.84-.52-20,1.56-30.42-4.18,16.69-18.78,16.69-18.78,5.22-19.82-8.87-16.69c0,0-8.87,6.26-32.34,12.52s-24,25.56-22.44,26.08-3.13,23.48-11-5.21c0,0-17.73-9.39-14.34-30.79" transform="translate(0 0)"/><path class="cls-5" d="M455.87,258s38,2.35,43.43,6.26-5.08-11.74-5.08-11.74-.39-6.65,9-4.3-2.35-9-2.35-9-7.83-4.31-1.17-16.44,23.47-18,23.47-18,5.87-21.52-1.95-20.34S498.52,197,498.52,197A45.26,45.26,0,0,0,480.91,202c-8.61,4.7-12.13,20.35-12.13,20.35s-8.61,4.89-12.91,2.25a53.91,53.91,0,0,0-18.78,6.75c-9,5.48-23.87-4.69-23.87-4.69s-4.31,1.56-5.09,11,4.3,14.09,4.3,14.09-1.17,6.65,17.22-6.65,31.7-6.26,31.7-6.26,3.52.78-2.35,8.61-7.44,10.26-3.13,10.56" transform="translate(0 0)"/><path class="cls-5" d="M399.52,268.17s13.31,3.92,0-12.52c0,0,1.18-8.61-8.22-14.87s-1.56-18-1.56-18-2-9-14.09-5.87-10.29,10.57-10.29,10.57-12.63,9.14,0,14.94,9.69,5.41,17.23,4.23,16.93,21.52,16.93,21.52" transform="translate(0 0)"/><path class="cls-5" d="M306,238.43s2,9,10.17,8.61,9.39-4.62,9.39-4.62-3.91-14.55-9.78-15.33c0,0-3.91-.39-3.91,4.3s-10.57-4.31-10.57-4.31-3.52-9-4.3-6.25-5.09,8.35-7.83,21.59c0,0-10.95,5-3.52,9.71s13.31-4.7,13.31-4.7,3.2-15.51,7-9" transform="translate(0 0)"/><path class="cls-5" d="M345.91,193.83s6.26,7.82,11.74,0c0,0,6.26-4.7-34.43-38.74s-54-35.61-54-35.61-26.61-26.22-28.57-45.39c0,0-7.82-3.13-3.13,12.91,0,0-1.56,11.35,5.48,20.35s6.65-.78,6.65-.78,3.92-5.09,7.44,9.78,13.3,9.78,13.3,9.78,10.09,4,12.68,9.44,16.28,6.6,16.28,6.6,10.56,5.87,10.56,16.05S313,171.13,313,171.13s2.35,1.17,3.92-6.26S325.57,175,325.57,175s9.78,4.7,9,13.31c0,0,3.91-4.31,9.78,3.13s1.56,2.35,1.56,2.35" transform="translate(0 0)"/><path class="cls-5" d="M207.78,245.48s31.31,1.7,36.39-3.06S246.91,229,246.91,229s-10.56-4.68-13.3,7.84c0,0-2.59,4.29-6-2S212.48,237,212.48,237s-2.35,1.85-4.7,8.5" transform="translate(0 0)"/><path class="cls-5" d="M225.39,228.19s7.83-2.43,12.13-11.94-17.45-8.73-17.45-8.73-2.11,7.29,5.32,20.67" transform="translate(0 0)"/><path class="cls-5" d="M220.07,197.3s4.59-6.21,8.87-2.69,2.32,8.61,2.32,8.61-9.46,1.48-11.19-5.92" transform="translate(0 0)"/><path class="cls-5" d="M145.17,209.48s23.09-12.52,41.48,3.13c0,0-10.56-15.07,2.35-19.08s16.43,4.9,16.43,4.9,12.53,8.22,9-14-9.78-29.69-9.78-29.69-19.56-17.9-43.82-19.13c0,0-12.53,3.86-12.53,11.3s-8.6-11.3-8.6-11.3-14.48,1.52-15.27,10.52,17.22,12.13,17.22,12.13-3.52,3.91,7.44,5.08,6.26-8.21,7.82-7,6.47-7,12.82,7.83c0,0,1.27,6.65,11.44,4.3s.39,19.57.39,19.57-4.3,8.52-28.17,9.34-8.22,12.18-8.22,12.18" transform="translate(0 0)"/><path class="cls-5" d="M89.22,152.93s8.41,17,22.69,9,2-21.71,2-21.71-7-4.31-25.83,2.54c0,0-3.13.78-14.08-5.87,0,0-7.44-6.26-8.42,6.85,0,0,13.11-2.94,13.5.78s-5.28,7.24-5.28,7.24S59.09,147.46,62,151s14.09,7.43,14.09,7.43,5.67-3.84,6.85-8.67,10-2.48,10-2.48,4.26,5.27-3.71,5.67" transform="translate(0 0)"/><path class="cls-5" d="M25.43,106.76s16.63-8.22,20.94-3.52,17,16.83,23.09,16.83S86.28,114,86.28,114s4.5-6.65-1.76-5.87-14.28-4.5-14.28-4.5-3.33-2.93,3.13-3.52-10.57-11-10.57-11-4.1-1.56,2.55-5.28S53.61,69,53.61,69s-10.76-6.46-21.33,0-2.15,11-2.15,11,8.22,7.63,15.46,7.24,1.56-6.07,1.56-6.07,2.55-7.24,7.05-.2S46.56,93.1,46.56,93.1s8.26,3.51,11.74-1.4,1.37,7.43,1.37,7.43,1.65,6.3,7.63,6.26,1.18,2.74,1.18,2.74S64.56,107.54,49.89,98c0,0-6.06-6.79-17.61-4.86s-15.45,13.07-15.45,13.07-1.72,4.54,8.6.59" transform="translate(0 0)"/><path class="cls-5" d="M0,74.67V64.11s3.13-1.57,5.67-2.94,1.18,6.75,1.18,6.75,3.71,3.23,7.24,1.67S12.91,77,12.91,77,2.15,77.8,0,74.67" transform="translate(0 0)"/><path class="cls-5" d="M1,144.72s4.89,8.21,11,6.65,7.82-.58,11.73-3.23,2.16,1.6,2.16,1.6-3.25,3.78-10.43,5c0,0-5.23,5.28-9.92,2.93S0,153.33,0,153.33v-8.61Z" transform="translate(0 0)"/><path class="cls-5" d="M16.83,250.17s-1.76-9.39,3.71-8.21,7.24,17.8,7.24,17.8-.27,12.91-5.61,11.94-8.08-5.87-8.08-5.87,1.56-5.29,4.11-5.68-1.37-10-1.37-10" transform="translate(0 0)"/><path class="cls-5" d="M27.78,281.09s10.18-8.61,20,2.74c0,0-6.26,5.47,0,8.8s-6.26,12.52-6.26,12.52-2.55,1.76,4.5,6.65,1.56,18.4,1.56,18.4-9,4.5-18.58-8.81c0,0,7.82-.59,6.84-6.26s.59-13.89.59-13.89,2-2.15-5.87-6.07-2.74-14.08-2.74-14.08" transform="translate(0 0)"/><path class="cls-5" d="M80,302.09s5.34-3,6,0-2.35,6-2.35,6-3.78.13-3.65-6" transform="translate(0 0)"/><path class="cls-5" d="M80,316.17s2-4.95,6.92-2.34-.26,5.21,12.39,5.34,7.31,8.09,7.31,8.09-5.48-2.22-6,5-5,8.35-5,8.35-4.62-2.74-1.79-11.35-7.77-3-7.77-3S79.3,325,80,316.17" transform="translate(0 0)"/><path class="cls-5" d="M130.17,320.22s5.74,1,13.57-10.44c0,0,5.22-2.71,3.26,5.23s12.13,2.47,12.13,2.47,6.52-2.22,8.09,6.52,0,12.13,0,12.13-5.61.39-6.13-3.65-5.48,2.09-5.48,2.09-9,.13-11.35-7.05-6.13-.7-6.13-.7-13.73-4.55-8-6.6" transform="translate(0 0)"/><path class="cls-5" d="M167.91,400.3s-1.61-16.17,6-14.87,7.43,6.14,7.43,6.14,2.09,8.21,10.83,5.73,5.61,10.31,5.61,10.31-4.18,12.91,10,15.65,4.7,7.44,4.7,7.44-8.09,4.3-.13,4.56,8.48-4.43,8.48-4.43,3.13-4.55,4.3,4.44-8.61,13-8.61,13-15.13-4-16.56-13.82A18.48,18.48,0,0,0,191.22,421s-5.87-4.47-6,5.83-6.79-4-6.79-4-8-9.78-5.08-15c0,0,3.26-2.87,10,.13s5.74-4.7,5.74-4.7-7.43-5.47-9,.92S175.3,398,175.3,398s-5.08-.79-5.08,3.26-2.31-.92-2.31-.92" transform="translate(0 0)"/><path class="cls-5" d="M0,535s11.61-3.13,4.57,13.57S15,541.71,15,541.71s18.26-6.2,11.74,12.87,34.7,14.64,34.7,14.64,9.91,3.65,18.52-7.05A43.78,43.78,0,0,0,89.09,539s5.21-13.83,19,.52-2.35,19-2.35,19-9.13,17-26.87,25.57,27.39,16.43,27.39,16.43,8.87,2.61,1.83,11.48,14.61,7.57,14.61,7.57S146,617,152.48,617.22,147,630,147,630s-11.74,9.13-7,19.57-13.05,0-13.05,0-13.3.26,2.61,9.65-10.17,27.45-10.17,27.45a7,7,0,0,1-3.72-6.06c-.2-4.5-8.22-.78-8.22-.78s-7.43,9.39-11.93,6.84-.39,9.4-.39,9.4,2.54,4.1-2.16,9.58-.39,32.09-.39,32.09,2.94,1.76-5.67,13.11,14.48,0,14.48,0,7.82-5.48,9-11.35S101.74,728,101.74,728s-4.89-7.44,5.28-5.09,24.26-12.72,24.26-12.72a13.69,13.69,0,0,0,.59-11.35c-2.54-5.87,8.8-21.52,8.8-21.52s10-19.76,17-10.76,3.13,12.72,3.13,12.72-5.61,9.33,11.47,5.28,20.35,8.35,20.35,8.35-.78,6.65,6.52,8,10.31,10.43,10.31,10.43,3.52,8-4.18,14.74,12.13,1.7,12.13,1.7,8.74-5.09,4.57-11.22,14.87-8.35,14.87-8.35,23.35-.39,20.61-27.39c0,0-2.22-5.09,7-6.13S268,650.48,268,650.48s-3-10.18,8.61-4.57,8.74,17.87,8.74,17.87S278.09,675.91,270,679s5.22,17.09,5.22,17.09,5.61,4.57-7.44,5.74-17.08,9.78-17.08,9.78-14.61,12.92-2.61,15.26A21,21,0,0,1,258.52,725c6.52.26.52,12.26.52,12.26s-2.87,4.3,6.53.26,7-8.22,11.21-6.52,2.61,10.82,2.61,10.82a5,5,0,0,0,3,4.05c2.74,1-3.52,5.08-3.52,5.08s-3.13,1.48,4.3,5,3.4,11.59,3.4,11.59-6.92,4.17-14.22,0-16.57-2.61-16.57-2.61-10.69,4.43-.52,7,10.57,5.35,15.52,4.7,5.61-3.78,7.18-1.57-2.22,10.18-2.22,10.18S264.26,793.17,246,791c0,0-4.43-3.13-1.57-10.31s-33.65-3.26-33.65-3.26-4.69.52-4.82,5.22,3.26,9.26,3.26,9.26,6.52,4,12.13,2.35,8.48,7.3,8.48,7.3,7.3,3.13,14.34,1.05,5.35,12,5.35,12,4.44,5.34,10.31,1.17,16.95,2.61,16.95,2.61,8.87,2.08,8.61,8.87,15.13,0,15.13,0,16.18-8.09,19.7-3.13-5.35,17.8-5.35,17.8H235.7s9-20.54-5.61-28.76-13.18,22.57-13.18,22.57-1,6.25-8.61,6.19H194s1.3-10.76,5.47-8.93-1.69-7.31-1.69-7.31-1-3-9.52,7.18-4.05,9.06-4.05,9.06h-37s-1.89-18.59-9.2-14.15A15.14,15.14,0,0,1,124,828.91s-5.08.59-1.76,6.2,3.92,6.78,3.92,6.78h-19s2.35-14.22-8-16.56a16.64,16.64,0,0,0-10.31,4.5C84.46,834.2,86,817.24,86,817.24s1.69-8.09,11.77-9.26-2.45-11.64-2.45-11.64-3.91-2.16-11.15-10.27S80,771.59,80,771.59s-2.15-2-9.1.39-13.3-23.68-13.3-23.68S53.41,734,40.7,734.9,4.7,724.63,0,739.11Z" transform="translate(0 0)"/><path class="cls-5" d="M321.65,841.89S324,824.22,338,825s18.91,16.89,18.91,16.89Z" transform="translate(0 0)"/><path class="cls-5" d="M352.83,816s16.69,15.91,37.56,4.44c0,0,16.7-7.7,20.94,2.28s5.21,7.95,5.21,7.95,1.76-.32,2.94-6.91,10.82-.06,10.82-.06,7.9,4,6.66,11.8,16.89-11.15,16.89-11.15-8.48-14.22-16.11-13.57,4.17-16.69,4.17-16.69-6.19-13.8-11.57-7.73a31.4,31.4,0,0,0-6.75,13.69s-2.08,2,4.79,4.8-2.93,3.23-2.93,3.23-9.49-3.23-9.59-11.55-23.48-12.23-23.48-12.23-16.73-2.15-26.8,6.85-12.75,18-12.75,18-2.15,5.11,0,6.85" transform="translate(0 0)"/><path class="cls-5" d="M417.65,754.44s8.74,6.39,6.26,16,6.26,12.78,6.26,12.78,7.18-.78,8.09-7,2.09-8.48.78-12.52-6-10.44-6-10.44-2.21-5.74,5-3,9.13-2.87,9.13-2.87,5.22-4.17,3.78,2.74,7.18,4.31,7.18,4.31,8.35-3.79,6.13,2.47,2.61,7.79,2.61,7.79,7,.63,11.83-2.6,3.62,5.77,3.62,5.77,2.64,3.23,4.31-2.74,6.16-.43,6.16-.43,7.92,1.8,4.89-7.79S474.26,735,474.26,735s-7.82-2.54-11.54-7.83-9.39-8.8-7.83-22.3a32.52,32.52,0,0,0-5.87-22.7s-8.8,1.37-13.69,39.72c0,0,.19,10.37,7,12.92s-3.52,3.52-3.52,3.52-2.15-4.31-3.72-7.05-5.28,3.72-5.28,3.72-2.15,1.37,1.76,2.35.59,6.46.59,6.46-3.92,3.13-4.9-.59-8.6,7.43-8.6,7.43a6.54,6.54,0,0,0-1.05,3.79" transform="translate(0 0)"/><path class="cls-5" d="M467.48,841.89s-.19-12.06-9.49-13.5,11.45-15.26,11.45-15.26,1.95-.26-1.18,6.65,6.78.13,6.78.13-1.69-4.56-2.74-4.82,4.7-2.61,4.7-2.61,15.26-2.61,5.09-7.17-18.79-14.09-18.79-14.09-8.6-5.35-3-17.87,11.09,8.48,11.09,8.48,3.52,6.13,12-4.57,12,4.83,12,4.83a7.21,7.21,0,0,1-7.95,5.74c-6.92-.39,1.69,19.82,1.69,19.82s1.17,2.09,6.26,2.48,9.26,13.57,9.26,13.57,2.61,7-7.82,12.39-10.7-.39-10.7-.39-3.26-4.05-3.52,2.47-.13,3.72-.13,3.72Z" transform="translate(0 0)"/><path class="cls-5" d="M404,694.3s3.52,15.51,19.57,10.18,1.56-41.28,1.56-41.28-4.89-5.29-3.72,10.37-8.41-6.66-8.41-6.66-4.5-10.56-9,2.74a38.79,38.79,0,0,0,0,24.65" transform="translate(0 0)"/><path class="cls-5" d="M357.65,715s-7.24-15.84,2.15-20.93,19.18,7,19.18,7,2,4.89-2.94,10S385.83,727,385.83,727s4.89,2.15,7.24,0,0,6.85,0,6.85-11.55-3.33-15.46-8-4.89-11.73-9-11.34-8.61,2.34-11,.58" transform="translate(0 0)"/><path class="cls-5" d="M358.17,677.22s-14.08-.39-4-8.87c0,0,5.22-2.48,7.3,1.82s10.44-13.95,10.44-13.95-.26-6.52-9.52-2-12.39-1-12.39-1-1.44-11.22,1.56-19.44-11.74-2.08-11.74-2.08-5.22,3.65-1.69,12.39,7.17,21.26,9,21.65-2.22,6.39-.26,8.48,14.6,7.43,11.34,3" transform="translate(0 0)"/><path class="cls-5" d="M469.3,658.7s-7-2.63-3.78,3.64,9.39,1.57,8.87,3.14-13.56,1.82-13.56,1.82-6.66.79,1.3,2.61,12,6.66,17.87,2.87,5.35-6.65,6.91-5.08-1.69,7.82.66,13.3,7.56,9.06,6.78,3-7.31,3.55-4.05-18.62c0,0,1.7-5.35,6.53.26s12.39-9.39,12.39-9.39,6-5.58-4.44-2S494.22,653,494.22,653s-6.52,2.55-.39-8.41S510.52,634.3,505.57,629s-8.61-5.22-12-4.05-2,9-1.31,10.44-7.3,8.35-8.74,5.87-1.3,7.3-1.3,7.3-.65,3.91-5.74.91.78,4.78.78,4.78,2,1.13,6.52,0-1.95,3.83-1.95,3.83-4.57,3.66-12.53.66" transform="translate(0 0)"/><path class="cls-5" d="M297.59,482.9s3.13,5.48,5.47,4.5,3,9.39,3,9.39.78,3.43,4.2,0,4.21-7.77,7.24-6.18,5.87.51,2-9.66-7.92-8.42-9-3.33-6,5.38-7.83,3.82-3.71-2.16-4.5-1.18a4.11,4.11,0,0,0-.58,2.64" transform="translate(0 0)"/><path class="cls-5" d="M151.7,582.65s-1.7,10.83,3.13,13.57-4.57,8.61-4.57,8.61-7.75,4.82,3,3.65S166,611.61,166,611.61s5.35,4.17,8,1-1.57-9.39-1.57-9.39-1.82-5.09,6.14-4.3S183,582.65,183,582.65s-3-2.61,2.09-4.43-4.31-8.48-4.31-8.48-6.39,2.87-5.08,9-10-1.7-10-1.7,5.87-11.87-2-8.47-8.74,8.21-6.79,9.26-.78,6.39-5.21,4.82" transform="translate(0 0)"/></g><g id="Stad"><path class="cls-6" d="M486.39,544.83s10.76-.55,12.72-12.9,9-13.52,9-13.52,5.87-19.76,1.37-21.52,4.11-1-2.35-3.13a9.56,9.56,0,0,1-6.88-7.83s-9.68,16.51-26.64,18.33c0,0-5.62-4.2-10.25-4.24s6.6,4.7,2.88,10.76-11.35,3.33-11.35,3.33.39,9,7.24,9.39,3.33-4.11,7.83-2.35-.79,4.31,3.71,5.29,4.5,6.52,4.5,6.52,4.31,3.6,8.61,0-.19,6.58-.19,6.58,1.17,2.94-.2,5.29" transform="translate(0 0)"/><path class="cls-6" d="M508.3,442.44s5.19,10.35,2.88,12.13-4.83-.92-4.83-.92-3.16-1.06-4.19.45c0,0-4.24-1.23-5.14-1.51,0,0,2-9.89,11.28-10.15" transform="translate(0 0)"/><path class="cls-6" d="M395.93,242.87s-3.38-4.44-6.81-4c0,0-7.23-8,3.41-15.55,0,0,5.69,2.6,9.8,1.27s1.37,3.88,1.1,4.79-3.78,4-3.78,4-3.85.19-3.65,3.45a41,41,0,0,1-.07,5.94" transform="translate(0 0)"/><path class="cls-6" d="M407.09,228.33s1.82-4.57,2.74-3a8.73,8.73,0,0,0,2,2.37,17,17,0,0,0-3.75,11.13c.08,7-5.2,4.5-5.2,4.5s-8.55-7.24-2.68-7.89,6.92-7.11,6.92-7.11" transform="translate(0 0)"/><path class="cls-6" d="M352.76,201.59s2.26-5.42,5.24-7.44,3,.85,3,.85,1.63,4.63,4.76,5.54,3.79,5.68,3.79,5.68,1.24,3.58,6.39,5,2.93,5.09,2.93,5.09a15.71,15.71,0,0,0-5.49,1.26c-2.81,1.23-1.49-5.24-1.49-5.24a10.74,10.74,0,0,0-2.73-3.13,36.62,36.62,0,0,1-4.37-3.63,7.21,7.21,0,0,0-2.42,1.28c-.78.78-4.89-4.17-4.89-4.17s.59-3.33-1.3-2.87a3.85,3.85,0,0,0-2.55,2.28s-1.19.11-.91-.52" transform="translate(0 0)"/><path class="cls-6" d="M79.24,119s1.71-2.35,6.6-4.75a17,17,0,0,0,7.1-6.65s4.25-1.66,4.54.3-1.85,6.31,1.91,6.4,3.52,5.82,8.85,2.11,5.83-5.19,7-4.11a10.08,10.08,0,0,1,3.42,10.12s-5.67,2.25-9,1.13S108.2,129,108.2,129s-3.33,2.69-6.46-1.57-5.14,3.62-5.14,3.62-.14.83-7.09-2.49-7.19-4.89-7.19-4.89S79,121,79.24,119" transform="translate(0 0)"/><path class="cls-6" d="M223.24,147.21s-1.76-4.25.29-7.09,4,.44,5.33-4.3a5.15,5.15,0,0,0-2-2.55c-1.52-1,3.62-1.66,3.62-1.66s3.37-1,1.37,3.77-.2,7.33-.2,7.33,1.37,1.76-4,4.5c0,0-.59,2.5-4.5,0" transform="translate(0 0)"/><path class="cls-6" d="M185.67,261.52a34.84,34.84,0,0,1,11-2.8c6.84-.72,7.17,3.32,7.17,3.32s-.46,3.92,2,3.39-1.24,5-1.24,5.29-2.54.26-8-1.5c0,0-2-4.37-4.18-3.92s-4.17-2-4.17-2-3.32-.74-2.68-1.76" transform="translate(0 0)"/><path class="cls-6" d="M253.27,593.3s3.23,4.79,7-.88,4.46-16.88,1.18-18.39-14.38,7.09-14.38,7.09,1.51,5.92-1.66,4.4-4,4.16-4,4.16,1.77,2.79,5.48-.15,6.36,3.77,6.36,3.77" transform="translate(0 0)"/><path class="cls-6" d="M300.62,469.11a9.51,9.51,0,0,0-.49,7.63c1.59,4,4.5,2.05,4.5,2.05s-1.56-5,1.47-5.87,6.85-1.37.58-3.81-6.06,0-6.06,0" transform="translate(0 0)"/><path class="cls-6" d="M25.17,440.87s4.76-2.58,4.28-7.66,4.4,3.83,4.4,3.83,3,2.23,4.6-5.4,8.6-13.3,8.6-13.3,7.73-4.5,8.12,3.13-3.13,13.69,0,13.5,8.91-1.67,7.34,2.44-6.85,6.07,1.17,5.38,6.95,3.82,0,5.09-7.63.29-5.57,2.84-7,2.74-8.41,1-2.65,3.52-.1,5-7.44,3.82-7.44,3.82-6.75,1.76-2-7.24,1.17-10.37-4.4-10.17-17-1-10.54-2.22" transform="translate(0 0)"/><path class="cls-6" d="M140.87,378.33s.06,4.11,7.46-4.5,0-8,0-8l-7.46,5.87s-6.23,2.16,0,6.66" transform="translate(0 0)"/><path class="cls-6" d="M386.8,738.82s-3-5.19,7.93-5,6.55-7.63,6.55-7.63-1.66-5.09,2,0,9.49,13.69,0,19.17-5.84-1.27-5.84-1.27,4.67-6.07-.72-4.31a12.79,12.79,0,0,1-9.88-1" transform="translate(0 0)"/><path class="cls-6" d="M292.57,774.52s-2.74-13.43,2.73-15.13,6.14-4,6.14-4,2.08,1.82,1.95,6.78,8.74-1.57,8.74-1.57,4.17,1.05,0,3.79-8.74,5.87-10.83,4.3-5.21,5.87-5.21,5.87-2.35,3-3.52,0" transform="translate(0 0)"/><path class="cls-6" d="M112.3,701.09s-2.21-8.22,4.44-7.83,8.48,2.09,8.48,2.09-.52,2.35,4.17.78-1.43,3.39-1.43,3.39-3,1.31.26,4.05A5.79,5.79,0,0,1,130,710s-4.56,0-7.82-5c0,0-4.31-4.32-5.09-3.4s-4.83-.51-4.83-.51" transform="translate(0 0)"/><path class="cls-6" d="M52.24,784.4s1.76-6.26,6.55-6.94,3.53-7.24,3.53-7.24S64,766.4,65,772.76s1.27,4,3.32,6.16-4.11,9.59-4.11,9.59-4.3,10.27-7.14,3.72a20.09,20.09,0,0,1-.88-6c0-3.42-5.63,1.72-3.91-1.86" transform="translate(0 0)"/><path class="cls-6" d="M444.39,795s-.91,1.83,4,4.83,1.31,10.17,11.48,4.69S466,795,466,795s-4-1.3-7,.91-4.17,3.92-5.15,1.57-9.46-2.48-9.46-2.48" transform="translate(0 0)"/><path class="cls-6" d="M477.59,636.2s-2.16-4.11,4.11-5.87S483,614.87,483,614.87,476,619.5,475.7,628s1.89,8.22,1.89,8.22" transform="translate(0 0)"/><path class="cls-6" d="M492.26,588.26s11.09-24.39,25.57-35l8.19-8.47v6.65s-2.06.13-6.11,4.69,3.92-.26,4.18.66,3.13,2.34.39,3.52-6.26-.78-6.52,1.17-5.22,4.83-5,1.83-2.09-1.05-2.35.91-1.17,7.44-2.22,6.39-2.08-1-3,1.83-3.65,3.78-4.17,4.69-3.13,2.61-3.39,5.22-6,10.05-5.61,5.87" transform="translate(0 0)"/><path class="cls-6" d="M208.83,470c-.59-.9-6.26-6.53.91-7.18s6.13,3,6,3.59-.65,2.33,2.48,1.65-.92,3-.92,3-6.5,2-8.47-1" transform="translate(0 0)"/><path class="cls-6" d="M312.13,327.78s6.52-5.87,9.78,0S333,330,333,330s4.83-3.52,2.74,1.83-5.35,3.52-2.22,8.47,3.91,9-.65,5.09-7.17-11.86-11.74-9.32-2,16.1-4.7,10.36-5.73-11.21-4.3-13.82a4.88,4.88,0,0,0,0-4.83" transform="translate(0 0)"/></g></g></svg>