<svg xmlns="http://www.w3.org/2000/svg" viewBox="0 0 502.76 699.59"><defs><style>.cls-1{fill:#e74c3c;}</style></defs><title>vector-stad_1</title><g id="Laag_2" data-name="Laag 2"><g id="Laag_1-2" data-name="Laag 1"><g id="Stad"><path class="cls-1" d="M463.13,437.89s10.76-.54,12.71-12.89,9-13.52,9-13.52,5.87-19.76,1.37-21.52,4.11-1-2.34-3.13A9.58,9.58,0,0,1,477,379s-9.68,16.5-26.64,18.33c0,0-5.61-4.2-10.25-4.25s6.6,4.7,2.89,10.77-11.35,3.33-11.35,3.33.39,9,7.24,9.39,3.32-4.11,7.82-2.35-.78,4.3,3.72,5.28,4.5,6.53,4.5,6.53,4.3,3.59,8.61,0-.2,6.58-.2,6.58,1.18,2.94-.19,5.28"/><path class="cls-1" d="M485,335.5s5.18,10.36,2.87,12.13-4.83-.91-4.83-.91-3.16-1.06-4.19.45c0,0-4.23-1.23-5.14-1.52,0,0,2-9.89,11.29-10.15"/><path class="cls-1" d="M372.67,135.94s-3.38-4.44-6.81-3.95c0,0-7.24-8.05,3.41-15.55,0,0,5.68,2.6,9.79,1.27s1.37,3.88,1.11,4.79-3.78,4-3.78,4-3.85.19-3.65,3.45a42.85,42.85,0,0,1-.07,5.94"/><path class="cls-1" d="M383.82,121.39s1.83-4.56,2.74-3a8.65,8.65,0,0,0,2,2.37,17,17,0,0,0-3.75,11.13c.08,7-5.21,4.5-5.21,4.5s-8.54-7.24-2.67-7.89,6.91-7.11,6.91-7.11"/><path class="cls-1" d="M329.5,94.65s2.26-5.41,5.24-7.43,3,.85,3,.85,1.63,4.63,4.76,5.54,3.78,5.67,3.78,5.67,1.24,3.59,6.39,5,2.93,5.08,2.93,5.08a15.79,15.79,0,0,0-5.48,1.27c-2.81,1.22-1.49-5.25-1.49-5.25a10.66,10.66,0,0,0-2.74-3.13,36.48,36.48,0,0,1-4.37-3.63,7,7,0,0,0-2.41,1.29c-.78.78-4.89-4.18-4.89-4.18s.59-3.32-1.31-2.87a3.85,3.85,0,0,0-2.54,2.29s-1.2.11-.91-.53"/><path class="cls-1" d="M56,12.06s1.71-2.36,6.6-4.75A16.91,16.91,0,0,0,69.67.66S73.93-1,74.22,1s-1.86,6.31,1.91,6.41,3.52,5.82,8.85,2.1,5.82-5.18,7-4.1a10.12,10.12,0,0,1,3.42,10.12s-5.67,2.25-8.95,1.13-1.47,5.47-1.47,5.47-3.32,2.69-6.45-1.56-5.14,3.62-5.14,3.62-.15.83-7.09-2.5-7.19-4.89-7.19-4.89S55.68,14.06,56,12.06"/><path class="cls-1" d="M200,40.28s-1.77-4.26.29-7.09,4,.44,5.33-4.31a5.13,5.13,0,0,0-2-2.54c-1.51-1,3.62-1.66,3.62-1.66s3.38-1,1.37,3.76-.19,7.34-.19,7.34,1.37,1.76-4,4.5c0,0-.59,2.49-4.5,0"/><path class="cls-1" d="M162.41,154.59a34.86,34.86,0,0,1,11-2.81c6.85-.71,7.18,3.33,7.18,3.33s-.46,3.91,2,3.39-1.24,5-1.24,5.28-2.54.27-8-1.5c0,0-2-4.37-4.17-3.91s-4.18-2-4.18-2-3.32-.74-2.67-1.76"/><path class="cls-1" d="M230,486.37s3.23,4.79,7-.88,4.45-16.88,1.17-18.4-14.38,7.1-14.38,7.1,1.52,5.91-1.66,4.4-4,4.16-4,4.16,1.76,2.78,5.48-.15,6.36,3.77,6.36,3.77"/><path class="cls-1" d="M277.36,362.18a9.51,9.51,0,0,0-.49,7.63c1.58,4,4.5,2.05,4.5,2.05s-1.57-5,1.46-5.87,6.85-1.37.59-3.81-6.06,0-6.06,0"/><path class="cls-1" d="M1.91,333.94s4.76-2.58,4.27-7.67,4.4,3.83,4.4,3.83,3,2.23,4.6-5.39,8.61-13.31,8.61-13.31,7.73-4.5,8.12,3.13-3.13,13.7,0,13.5,8.9-1.66,7.34,2.45-6.85,6.07,1.17,5.38,6.95,3.82,0,5.09-7.63.29-5.57,2.83-7,2.74-8.42,1-2.64,3.52-.1,5-7.43,3.82-7.43,3.82-6.75,1.76-2-7.24S18,336,12.44,336.15s-16.95-1-10.53-2.21"/><path class="cls-1" d="M117.61,271.39s.06,4.11,7.46-4.5,0-8,0-8l-7.46,5.87s-6.23,2.15,0,6.65"/><path class="cls-1" d="M363.54,631.88s-3-5.18,7.92-5,6.56-7.63,6.56-7.63-1.66-5.08,2,0,9.48,13.7,0,19.18-5.84-1.27-5.84-1.27,4.66-6.07-.72-4.31a12.77,12.77,0,0,1-9.88-1"/><path class="cls-1" d="M269.3,667.59s-2.74-13.44,2.74-15.13,6.13-4.05,6.13-4.05,2.09,1.83,2,6.79,8.74-1.57,8.74-1.57,4.17,1,0,3.78-8.74,5.87-10.83,4.31-5.22,5.87-5.22,5.87-2.34,3-3.52,0"/><path class="cls-1" d="M89,594.15s-2.22-8.21,4.44-7.82,8.47,2.08,8.47,2.08-.52,2.35,4.18.79-1.44,3.39-1.44,3.39-3,1.3.26,4a5.81,5.81,0,0,1,1.83,6.39s-4.57,0-7.83-4.95c0,0-4.3-4.32-5.08-3.4s-4.83-.52-4.83-.52"/><path class="cls-1" d="M29,677.47s1.76-6.26,6.55-7,3.52-7.24,3.52-7.24,1.66-3.81,2.64,2.55S43,669.84,45,672s-4.11,9.59-4.11,9.59-4.3,10.27-7.14,3.72a20.17,20.17,0,0,1-.88-6c0-3.43-5.64,1.72-3.91-1.86"/><path class="cls-1" d="M421.13,688.07s-.92,1.82,4,4.82,1.31,10.18,11.48,4.7,6.13-9.52,6.13-9.52-4-1.31-7,.91-4.18,3.91-5.16,1.57-9.45-2.48-9.45-2.48"/><path class="cls-1" d="M454.32,529.26s-2.15-4.11,4.11-5.87,1.34-15.45,1.34-15.45-7.08,4.63-7.34,13.11,1.89,8.21,1.89,8.21"/><path class="cls-1" d="M469,481.33s11.08-24.39,25.56-35l8.2-8.48v6.65s-2.07.14-6.11,4.7,3.91-.26,4.17.65,3.13,2.35.39,3.52-6.26-.78-6.52,1.18-5.21,4.82-4.95,1.82-2.09-1-2.35.92-1.18,7.43-2.22,6.39-2.09-1-3,1.82-3.65,3.79-4.17,4.7-3.13,2.61-3.39,5.22-6,10-5.61,5.87"/><path class="cls-1" d="M185.56,363c-.59-.9-6.26-6.52.92-7.17s6.13,3,6,3.59-.66,2.32,2.47,1.65-.91,3-.91,3-6.5,2-8.48-1.05"/><path class="cls-1" d="M288.87,220.85s6.52-5.87,9.78,0,11.09,2.22,11.09,2.22,4.82-3.52,2.74,1.82-5.35,3.52-2.22,8.48,3.91,9-.65,5.09-7.18-11.87-11.74-9.33-2,16.11-4.7,10.37-5.74-11.22-4.3-13.82a4.91,4.91,0,0,0,0-4.83"/></g></g></g></svg>