<svg xmlns="http://www.w3.org/2000/svg" viewBox="0 0 526.02 841.89"><defs><style>.cls-1{fill:#ffecb3;}</style></defs><title>vector-overig</title><g id="Laag_2" data-name="Laag 2"><g id="Laag_1-2" data-name="Laag 1"><path class="cls-1" d="M521.61,517.53c.24-5.57-3.13-5.77-3.13-5.77s-5.09,7-10.18,9.29c0,0-3,.59-3.71,2.25s-3.13,2.25-4,11.06-6.66,15.94-6.66,15.94-2.54,2.06-5.77,10.18a37.69,37.69,0,0,1-8.51,12.91s-5.87,2.94-5.67,5.19c0,0-2.74,5.74-4.6,5.57s-3.23,11.15-3.23,11.15-.49,10.08-1.66,13.11-4.6,12.23-4.6,12.23-6.65,11.15-6.85,13-3.42,9.39-3.42,9.39a14.29,14.29,0,0,1-4,7.54c-3.33,3-10.37,16.72-10.37,16.72s-4.57,9.1-1.6,9.88a32.53,32.53,0,0,0,5.41,5c2.25,1.37,5-4.3,5-4.3a96.1,96.1,0,0,0,5.48-16c2.15-8.8,17.9-26.21,17.9-26.21s7.54-3.53,9-22.9,10.57-27,10.57-27,1.07,0,4.11-6.06,11.74-18.88,11.74-18.88,7.43-9.88,12-13.11,6.94-15.83,6.94-15.83,3.45-8.23,4.22-9.51h0S521.36,523.11,521.61,517.53Z"/><path class="cls-1" d="M231.13,102.52c1.63,4.7,10.44,7.7,11.94,12.72s-3.2,15.19-3.2,15.19-1.83,15.59-5.28,17-8.74,9.06-9.07,11.47,10.44,8.78,11.12,5.16,18.78-17.81,25.63-15.77-2,13.71-5.09,18.21-1.66,4.21-1.76,6,3.82,5.48,4.41,2.54,10.95-6.94,16.53-11.34,5.28-7.44,5.28-7.44-2.47-8.78-2.47-14.43,6.48-3.55,6.48-3.55c4.92,3.15,13.7,3.89,13.7,3.89,3.72,1.57,4.37,3.92,6.06,5.05s1.63,5.52,1.63,5.52A71.07,71.07,0,0,1,309.13,165c.65,7.3,3.07,6.06,3.07,6.06s2.41.79,3.26-1.43,1.88-5.93,1.88-5.93c1.11-2.74,3.42,1.68,3.42,1.68s-.2-.29,3.24,14.75-2.54,20.93-2.54,20.93S297.2,198.72,297,194.8s-6.08-18-19-10.17-3.13,6.07,1.18,16.24,5.87,15.38,5.87,15.38-1.9,31.55-18.2,30.79-19.42,5.29-19.42,5.29c-3,8.95,10.65,17,11.67,17.58,1.42-.35,22.66-5.6,31.23-1.33,8.87,4.42,27.39-15.8,27.39-15.8s16.83-6.91,22.83-1.82,30,1.3,30,1.3,10-2.22,17.73,9.13,22.28,23.9,28.34,23.9,11.25-7.14,11.25-7.14,11.54-6.75,13.89-5.38,6.85-7.35-2-7.88-8.41-11.29-15-8S412,268.47,410.64,267.49s-3.56-.78-6.07-9-8.64-15.62-8.64-15.62-2.11-9.82,3.72-9.39c0,0,3.19-2.5,3.78-4s1.75-4.59.77-4.79a4.84,4.84,0,0,0-1.65-.13c-.84,0-7.1-.06-8-1.56s-9.68-5.82-9.68-5.82-3.29-1.39-6-.8a3.12,3.12,0,0,0,.12-3.13c-.88-1.74-4-2.35-4-2.35s-3.92-1.19-5.48-4.63c0,0-.38-3.27-2.49-5A9.55,9.55,0,0,1,361,195s-.11-2-1.83-1.65-1.21-.5-1.21-.5.63-2.92-4.93-9.23-22.83-23.47-28-27S315,144.52,315,144.52s-8.22-8.41-15-9a8,8,0,0,1-4-1.45c-1.87-1.37-17.93-11.64-26.8-14.64,0,0-27.39-28.18-26.48-47.61l-8.15-.65-.08,0c.11,1.71.77,12.87.47,17.32C234.65,93.39,229.5,97.83,231.13,102.52Z"/><path class="cls-1" d="M523.24,537.88c0,.11,0,.21,0,.29a42,42,0,0,0,2.72,6.59A40.17,40.17,0,0,1,523.24,537.88Z"/><path class="cls-1" d="M426.44,737c.46-.88.9-1.82,1.34-2.83Z"/><path class="cls-1" d="M11.64,186.39c7,6.56,14.19,5.09,14.19,5.09s15.55-4.8,26.51-4.21,17,10.66,17,10.66,9.88,23.78,25.14,23.38,24.75,4.26,26.41,9.54,15.39,9.15,19.7,9.67,16.89,7.24,17.61,7.63,16,7.18,21.71,3.26a18.08,18.08,0,0,1,11.81-3s6.91,4.5,16.76,1.11,23.54-2.38,26.67-.91,10.11-5.87,10.11-5.87,10.63-.33,13-5.22a15.1,15.1,0,0,1,7-6.85c6.4-.06,8.55-4,8.55-4,4.5-16.63-3.33-16.76-3.33-16.76s-12.65-1.11-13.95-6.91a85,85,0,0,1-1.64-9.07s-6.26-5.15-7.36-10.43-15.79-10.83-15.79-10.83-10.43-8-10-14.09a10.61,10.61,0,0,1,4.63-8.48s8.74-7.36,8.09-11.73,2.15-10.63,2.15-10.63c2.93-4.18,3-10.77,3-10.77s-.13-2.93-5.35-5.28-9.52-12.39-10.69-19.17c-1.12-6.42.79-16.54,1-17.62h0c-.45.1-20.28,3.78-18.45-3.65S182,87.29,182,87.29s-12.23,8.42-22.5,7.24-31.11,5-31.11,5a4,4,0,0,0-2,2.64c-.29,1.76.2,6.17,2.84,8.32s3.52,7.53,3.52,7.53,5.18,10.57-5.48,5.48-9.68-9.2-9.68-9.2a9.37,9.37,0,0,0-4-4.06c-2.6-1.12-1.23-12.08-1.23-12.08s-.18-5.54-4.15-7.24S103,84.65,103,84.65a17.83,17.83,0,0,1,1.44-8.41c1.89-4,5.09-3.72-2.35-10.11s-4,0-4,0,2.94,10.89-4.63.78-15.21-3.68-15.21-3.68-3.91,3.08-5.53-5.82-9-18.15-9-18.15S52,29.09,67,29.35s24,6.13,24,6.13,13.31,2.35,15.79-3.26,5-8.74-2.87-14.09-3.79-10.69-3.79-10.69l4-7.44H0V183.36S4.7,179.84,11.64,186.39Z"/><path class="cls-1" d="M516.82,554.22c-3.13,2.74-1.38.18-7.69,7.33s-7.58,10.08-7.58,10.08-6.94,10.76-9.29,16.63a22.79,22.79,0,0,1-6.06,7c-4.11,3.13-7.34,15.07-7.34,15.07s-2.16,12-3.19,16.24-7.38,11-7.38,11-6.75,7.05-8.12,10.08-6.06,6.6-8.51,14.6-7.92,21.2-7.92,21.2-4.56,15.1-6.13,24.13-2.67,14.32-2.48,17.94-5.48,8.12-5.48,8.12-2.1,3.57-1.76,6.8c0,0,.54,1.58-3,2.74a33.93,33.93,0,0,0-6.8,8.51c-2.5,4.74-7.34,10.42-22.7,23.43,0,0-12.22,7.14-19.86,9.58s-18.29,14.87-18.29,14.87-3,5.87-3.72,7.34-2.54,6.46-1.46,8.31c0,0-.49,6.75,3.52,15.27,0,0,3.57,9.56,3.33,11.31H526V544.83S520,551.48,516.82,554.22Z"/><path class="cls-1" d="M521.22,184.43c-2.38.71-10.08,2.74-22.7,12.53,0,0-25.82-.79-29.74,25.43,0,0-8.67,5-12.91,2.25,0,0-10.37,1.53-18.78,6.75s-23.87-4.69-23.87-4.69a14.92,14.92,0,0,0-4-2.06c-1.56-.36-2.46,4.63-2.46,4.63s-.9,5.11-5.33,5.42-3.37,3.4-3.37,3.4,4.16,7,7.32,5.61,2,5,2,5-.39,6.87.46,8.44,8.27-1.71,8.27-1.71,8.89-7.05,11.63-6.79,14.15-6.25,14.15-6.25,11.68-5,13.11-.4-3.52,13.44-3.52,13.44-1,2.47,3.72,2.93,10.33.36,10.33.36,19.18,1.7,20.48,2.22c0,0,12,1.7,12.88,3s5.85,1.07,5.85,1.07,7.36,2.79,7.36,7.19,9,8.12,9,8.12,3.72-.58.29,5.77c0,0-1.66,2.45.69,5.87s.78,17.53.78,17.53a4,4,0,0,0,.69,3.6c1.36,1.76-3.53,8-3.53,8s-11.54.88-15.84,6.75-3,16.43-3,16.43a27.64,27.64,0,0,1-3.42,14.48c-4,6.85,6.55,19,6.55,19a27.91,27.91,0,0,0,6.36,4.2c3.33,1.47,10.76,1.47,10.76,1.47s2.45-.29,1.08,3.82,1.27,9.49,1.27,9.49,1.17.78-2.25,5-3.13,17.32-3.13,17.32-.78,12.91.78,17.8,3,8,4.41,8.71,1.76,6.46,1.76,6.46,2.34,9-8.71-7.34-7-28.27-7-28.27-.88-27-26.42-40.31c0,0-12.52-3.71-33.55-5.77,0,0-3.13,8.38-27.91-34.66,0,0-5.61-7.44-12.13-2.87s4.82,12.72,5.73,15,4.31,8-3.52,10.33-27.65-.91-27.65-.91-3.78-3.65,9-12.13S399,326.22,399,326.22s-2.35-10.83-13.3-4.83a75.26,75.26,0,0,1-9,7.18s-8.78,3.1-11.34,3.83-12.27-1-15.86,1.19S326,321.26,315.13,319.17s-29.35-16.43-29.35-16.43a27,27,0,0,0-15.29-10.11c-9.88-2.15-10-14-10-14h0a15,15,0,0,0-10.7-6.39c-7.56-1.05-7.56-3.66-7.56-3.66s-1.7-8.47-5.35-6.26-15.69-1.66-15.69-1.66A10.34,10.34,0,0,0,210,260.4c-6.21,3.52-6.3,1.07-6.3,1.07s-.25-3.47-7-2.75-27.66-.59-31.7-4.24-12.52-5.61-14.74-7.18-18-2.34-22.56-3.91-10.57-10.3-10.57-10.3-5.09-9-10.56-7.7-19.7,0-19.7,0-18.52-16.83-19-20.61S57.52,195,52.7,192.39s-20,1-21,2.09-8.74.13-12.79,0-8.61-4-10.17-5.22-8.74,0-8.74,0V841.89H356.87a33.69,33.69,0,0,0-3.1-6.48s-7-17.75-4.43-30.37,23.08-21.62,23.08-21.62,32.38-16.07,38.22-26.51c4.14-7.4,10.66-10.08,15.77-19.9-6.57,3.18-34.52-26.07-34.52-26.07S375.83,686,368.41,689.22s-15.84-3.7-15.84-3.7-7.24-7.06-13.5-13.91-6.85-15.91-6.85-15.91-.59-10.11,0-22.44,7.63-29.54,7.63-29.54,16.43-18.39,25.51-24.65S377.61,568,377.61,568c7.24-5.24,6.85-13.74,7.83-19.61a54.88,54.88,0,0,1,3.65-11.79c3.91-7.88-3.13-18.21-4.7-19.65s-12.26-17.34-12.26-17.34-3.91-9.92-6.77-12.92-2.23-12.65,1-21.52,12-22.3,14.09-26.22-.52-21.13,1.09-21.37,6.12,3.68,6.12,3.68.61,21.08-4.86,25.13-12.66,19.56-14.09,30.39,14.48,33.95,14.48,33.95,14.22,15.75,12.26,32.83S384.91,571,384.91,571s-37.56,25.7-41.21,33.26-5.35,18.4-6.83,33.91,6.57,31,10,36,5,4.71,5,4.71,28.35,1.68,36.17,20.2S427.76,734,427.82,734a64.62,64.62,0,0,0,3.92-13.51c4.7-24.91,6.65-30.52,6.65-30.52s2.35-2.22-6-9.65,15-34.7,15-34.7,5.29-17.28,10.6-24.32,7.27-31.82,7.27-31.82,4.89-15,11.94-16.51,16-28.17,16-28.17,2.59-2.34,5-9.34,1.1-13.1,9.91-17.08c0,0,4.5-1,9.49-7.73,0,0-1.22-3.86,1.37-5.62s7-1.08,7-1.08V184.39A9.9,9.9,0,0,0,521.22,184.43ZM39.13,449s-4.6-1.47-4.7,5.67a13.09,13.09,0,0,1-5.08,10.47s-2,.39-2.06,3.81-.68,4.21-.68,4.21-6,10.56-15.26,13.6-6.75-8.81-6.75-8.81c.31-3.52,6.26-2.35,7.73-4.11s5.67-8.8,7.23-9.19,3.7-4,3.7-4,.22-7.87,2.47-9.24S30,442.94,30.1,443l4.33.16a37.1,37.1,0,0,1,4.1.07s-1.16.88.6,2.55A2.11,2.11,0,0,1,39.13,449Zm72,128.47c-7.43,4.44-4.7,6.27,3.39,6.92s2.61,3.91-1.69,7.95-4.57,2.74-6.13-.13-4.31,1.57-6.27,3.79-1.82-2-1.82-2c-1.44-3.13-.13-9.13,0-10.91s2.87-4.35,2.87-4.35,4.69-4.57,15.78-8.09S118.57,573,111.13,577.43Zm56-48.84s-10.56,2.74-13.3,8.61-10.95,11.15-10.95,11.15c-2.55-1.37-.39-2,0-10.76s3.13-8.22,4.72-5.66,2.52,1,13-4.91S167.08,528.59,167.08,528.59Zm29.09-140.94s3.79-12,10.57-6,15.13,22.18,11.48,26.35S195,390.44,196.17,387.65Zm28.52,406.81a4.56,4.56,0,0,0-3.34-.24c.5-.61-.7-.33-.7-.33-3.92.49-9.83-11.79-9.83-11.79-1.08-2.08.39-.49,4.64-3.47s9.78.93,9.78.93,5.53,4,5.83,9.34S224.69,794.46,224.69,794.46Zm22-204.78c1.79-1.43,3-.71,3-.71,2.14.66,3.17,3.77,3.53,4.33a4.94,4.94,0,0,0,1,1,6.49,6.49,0,0,0,2,4c4.64,4.79,3.49,15.48,3.49,15.48s-2,9.46-5.09,11.91-5.09-2.45-5.09-2.45c-1.17-3.81-1.27-18.32-1.27-18.32s-.1-8.25-1.14-8.91S246.72,589.68,246.72,589.68Zm18.78,54.64s-3.91-.59-4.21,3.32a36.82,36.82,0,0,1-2,8.41s-5.09.88-4.41,6.17-.68,8.21-.68,8.21c-5.09,5.87-3.91,14.87-3.91,14.87-3.23,1.08-1.57-2.25-1.47-3.42s1.27-9.49-1.08-11a3,3,0,0,1-1.17-3.91s4-15.16,5.28-13.5,5.77-3,5.58-3.81,2.64-6.27,6.45-9.4S265.5,644.32,265.5,644.32Zm43,179.66-7.94,3.24s-6.26-8.38-8.64-5.64-2,.58-2,.58.68-3.81-3-3.42-1.47-2-1.47-2,4.69-3.32,2.44-5.18.1-5,.1-5,3.52-5.09.49-4.89-2.54-3.33-2.54-3.33,13.4-8.8,8.7-.59,2,16.05,2,16.05C311.18,815.32,308.46,824,308.46,824Z"/></g></g></svg>