<svg xmlns="http://www.w3.org/2000/svg" viewBox="0 0 525.29 781.47"><defs><style>.cls-1{fill:#558b2f;}</style></defs><title>vector-bos</title><g id="Laag_2" data-name="Laag 2"><g id="Laag_1-2" data-name="Laag 1"><path class="cls-1" d="M480.91,378c12-6.79,12-48.53,12-48.53s-4.17-18.26-44.34-18.26c0,0-10.44,4.18-14.09-9.39s-23.84-.52-23.84-.52-20,1.57-30.42-4.17,16.69-18.79,16.69-18.79,5.22-19.82-8.87-16.69c0,0-8.87,6.26-32.34,12.52s-24,25.56-22.44,26.09-3.13,23.47-11-5.22c0,0-17.73-9.39-14.34-30.78,0,0-2.87-10.44-7.57-8.87s-29.74-7.83-54.78-6.79,6.78,26.09,6.78,26.09,10,6.78,19.59,6.26-9,9.92-9,9.92-4.36,9.39,12.86,2.6,12.52,8.35,12.52,8.35-7.82,4.7,0,7.83,3.13,18.26,3.13,18.26S258.13,329.5,229.43,342s17.74,17.28,17.74,17.28,7.83,1.5-3.65,5.15-15.65,11.48-15.65,11.48,6.63,6.78,35.14,0,69.21,20.35,69.21,20.35,26.08,17.74,30.26,0-18.26-21.92-18.26-21.92-15.13-13,12.52-19.3,37,12,37,12,.52,11-15.13,30.26,7.83,53.22,7.83,55.3,10.43,5.74,19.3-30.78S424,431.76,424,431.76s5.22-.52-6.26,15.66,7.45,21.39,7.45,21.39,11.34,10.43,19.68-15.13,28.7-10.44,28.7-10.44,16.69.52,30.78-25,0-24.52,0-24.52S468.91,384.81,480.91,378Z"/><path class="cls-1" d="M521.22,123.42c-7.83,1.17-22.7,12.52-22.7,12.52A45.26,45.26,0,0,0,480.91,141c-8.61,4.7-12.41,20.16-12.41,20.16s-8.33,5.08-12.63,2.44a53.91,53.91,0,0,0-18.78,6.75c-9,5.48-23.87-4.69-23.87-4.69s-4.31,1.56-5.09,10.95,4.3,14.09,4.3,14.09-1.17,6.65,17.22-6.65,31.7-6.26,31.7-6.26,3.52.78-2.35,8.61-7.44,10.26-3.13,10.56c0,0,38,2.35,43.43,6.26s-5.08-11.74-5.08-11.74-.39-6.65,9-4.3-2.35-9-2.35-9-7.83-4.31-1.17-16.44,23.47-18,23.47-18S529,122.24,521.22,123.42Z"/><path class="cls-1" d="M365.36,181.4c12.64,5.8,9.69,5.41,17.23,4.23s16.93,21.53,16.93,21.53,13.31,3.91,0-12.53c0,0,1.18-8.6-8.22-14.87s-1.56-18-1.56-18-2-9.27-14.11-6.14-10.27,10.84-10.27,10.84S352.73,175.6,365.36,181.4Z"/><path class="cls-1" d="M299,186.42s3.2-15.51,7-9c0,0,2,9,10.17,8.61s9.4-4.63,9.4-4.63-3.92-14.55-9.79-15.33c0,0-3.91-.39-3.91,4.3s-10.57-4.31-10.57-4.31-3.52-9-4.3-6.25-5.09,8.35-7.83,21.59c0,0-10.95,5-3.52,9.71S299,186.42,299,186.42Z"/><path class="cls-1" d="M346.05,133c.49.57,2,2.37,1.07,1.07A11.56,11.56,0,0,1,346.05,133Z"/><path class="cls-1" d="M243,46.33c7,9,6.65-.78,6.65-.78s3.92-5.09,7.44,9.78,13.3,9.78,13.3,9.78,10.09,4,12.68,9.44,16.28,6.61,16.28,6.61,10.56,5.86,10.56,16S313,110.11,313,110.11s2.35,1.18,3.92-6.26S325.57,114,325.57,114s9.78,4.7,9,13.31c0,0,3.91-4.31,9.78,3.13,1.54,1.95,2.37,3,2.77,3.58,2.09,1.83,6.52,4.5,10.53-1.23,0,0,6.26-4.7-34.43-38.74s-54-35.61-54-35.61-26.61-26.22-28.57-45.39c0,0-7.82-3.13-3.13,12.91C237.52,26,236,37.33,243,46.33Z"/><path class="cls-1" d="M346.05,133l-.14-.16Z"/><path class="cls-1" d="M244.17,181.4c5.09-4.77,2.74-13.38,2.74-13.38s-10.56-4.68-13.3,7.84c0,0-2.59,4.3-6-2S212.48,176,212.48,176s-2.35,1.85-4.7,8.5C207.78,184.46,239.09,186.16,244.17,181.4Z"/><path class="cls-1" d="M237.52,155.23c4.31-9.51-17.45-8.73-17.45-8.73s-2.11,7.29,5.32,20.67C225.39,167.17,233.22,164.75,237.52,155.23Z"/><path class="cls-1" d="M231.26,142.2s2-5.09-2.32-8.61-8.87,2.7-8.87,2.7C221.8,143.68,231.26,142.2,231.26,142.2Z"/><path class="cls-1" d="M141.65,97.2s-3.52,3.91,7.44,5.09,6.26-8.22,7.82-7.05,6.47-7,12.82,7.83c0,0,1.27,6.65,11.44,4.3s.39,19.57.39,19.57-4.3,8.52-28.17,9.35-8.22,12.17-8.22,12.17,23.09-12.52,41.48,3.13c0,0-10.56-15.07,2.35-19.08s16.43,4.91,16.43,4.91,12.53,8.21,9-14-9.78-29.69-9.78-29.69-19.56-17.9-43.82-19.13c0,0-12.53,3.87-12.53,11.3s-8.6-11.3-8.6-11.3-14.48,1.52-15.27,10.52S141.65,97.2,141.65,97.2Z"/><path class="cls-1" d="M74,75.87s-7.44-6.26-8.42,6.85c0,0,13.11-2.93,13.5.78s-5.28,7.24-5.28,7.24S59.09,86.44,62,90s14.09,7.43,14.09,7.43,5.67-3.84,6.85-8.67,10-2.48,10-2.48,4.26,5.27-3.71,5.68c0,0,8.41,17,22.69,9s2-21.72,2-21.72-7-4.31-25.83,2.54C88,81.74,84.91,82.53,74,75.87Z"/><path class="cls-1" d="M25.43,45.74s16.63-8.21,20.94-3.52,17,16.83,23.09,16.83S86.28,53,86.28,53s4.5-6.65-1.76-5.87-14.28-4.5-14.28-4.5-3.33-2.93,3.13-3.52-10.57-11-10.57-11-4.1-1.56,2.55-5.28S53.61,8,53.61,8,42.85,1.53,32.28,8s-2.15,11-2.15,11,8.22,7.63,15.46,7.24,1.56-6.07,1.56-6.07,2.55-7.24,7.05-.19-7.64,12.16-7.64,12.16,8.26,3.51,11.74-1.4,1.37,7.43,1.37,7.43,1.65,6.3,7.63,6.26,1.18,2.74,1.18,2.74-3.92-.58-18.59-10.17c0,0-6.06-6.78-17.61-4.86S16.83,45.16,16.83,45.16,15.11,49.7,25.43,45.74Z"/><path class="cls-1" d="M12.91,16s4.7-9,1.18-7.43S6.85,6.91,6.85,6.91,8.22-1.21,5.67.16,0,3.09,0,3.09V13.66C2.15,16.79,12.91,16,12.91,16Z"/><path class="cls-1" d="M25.83,88.72s1.76-4.24-2.16-1.6S18,88.79,11.94,90.35,1,83.7,1,83.7H0v8.61s.78,2,5.48,4.3,9.92-2.93,9.92-2.93C22.58,92.5,25.83,88.72,25.83,88.72Z"/><path class="cls-1" d="M22.17,210.68c5.34,1,5.61-11.94,5.61-11.94s-1.76-16.63-7.24-17.8-3.71,8.22-3.71,8.22,3.91,9.58,1.37,10-4.11,5.68-4.11,5.68S16.83,209.7,22.17,210.68Z"/><path class="cls-1" d="M29,260.37c9.58,13.31,18.58,8.81,18.58,8.81S53,255.68,46,250.79s-4.5-6.66-4.5-6.66,12.52-9.19,6.26-12.52,0-8.8,0-8.8c-9.78-11.35-20-2.74-20-2.74s-5.08,10.17,2.74,14.09,5.87,6.06,5.87,6.06-1.56,8.22-.59,13.89S29,260.37,29,260.37Z"/><path class="cls-1" d="M83.61,247.07s3-3,2.35-6-6,0-6,0C79.83,247.2,83.61,247.07,83.61,247.07Z"/><path class="cls-1" d="M95.61,279.55s4.43-1.18,5-8.35,6-5,6-5,5.34-7.95-7.31-8.08-7.43-2.74-12.39-5.35S80,255.16,80,255.16c-.65,8.87,6.1,10,6.1,10s10.6-5.61,7.77,3S95.61,279.55,95.61,279.55Z"/><path class="cls-1" d="M143.74,248.76c-7.83,11.48-13.57,10.44-13.57,10.44-5.77,2.05,8,6.6,8,6.6s3.78-6.47,6.13.7,11.35,7.05,11.35,7.05,4.95-6.13,5.48-2.09,6.13,3.65,6.13,3.65,1.56-3.39,0-12.13-8.09-6.52-8.09-6.52S145,261.94,147,254,143.74,248.76,143.74,248.76Z"/><path class="cls-1" d="M191.22,359.93A18.48,18.48,0,0,1,200,373.46c1.43,9.78,16.56,13.83,16.56,13.83s9.78-4.05,8.61-13-4.3-4.44-4.3-4.44-.53,4.69-8.48,4.43.13-4.56.13-4.56,9.52-4.7-4.7-7.44-10-15.65-10-15.65,3.13-12.78-5.61-10.3-10.83-5.74-10.83-5.74.13-4.83-7.43-6.13-6,14.87-6,14.87,2.31,4.95,2.31.91,5.08-3.26,5.08-3.26,3.27,12.52,4.83,6.13,9-.91,9-.91,1,7.69-5.74,4.69-10-.13-10-.13c-2.87,5.22,5.08,15,5.08,15s6.66,14.35,6.79,4S191.22,359.93,191.22,359.93Z"/><path class="cls-1" d="M184.17,780.87h-.61A1.36,1.36,0,0,0,184.17,780.87Z"/><path class="cls-1" d="M300.52,766.2s-15.39,6.78-15.13,0-8.61-8.87-8.61-8.87-11.08-6.78-16.95-2.61-10.31-1.17-10.31-1.17,1.7-14.09-5.35-12-14.34-1-14.34-1-2.87-9-8.48-7.3-12.13-2.35-12.13-2.35-3.39-4.56-3.26-9.26,4.82-5.22,4.82-5.22,36.52-3.91,33.65,3.26S246,729.94,246,729.94c18.26,2.22,29.74-5.74,29.74-5.74s3.78-8,2.22-10.17-2.22.91-7.18,1.56-5.35-2.09-15.52-4.69.52-7,.52-7,9.26-1.56,16.57,2.61,14.22,0,14.22,0,4-8.09-3.4-11.59-4.3-5-4.3-5,6.26-4,3.52-5.09a5,5,0,0,1-3-4s1.57-9.13-2.61-10.82-1.82,2.48-11.21,6.52-6.53-.26-6.53-.26,6-12-.52-12.26a20.93,20.93,0,0,0-10.43,2c-12-2.35,2.61-15.27,2.61-15.27s4-8.6,17.08-9.78,7.44-5.74,7.44-5.74-13.31-14-5.22-17.08,15.39-15.27,15.39-15.27,2.87-12.26-8.74-17.86-8.61,4.56-8.61,4.56,5.74,23.09-3.52,24.13-7,6.13-7,6.13c2.74,27-20.61,27.39-20.61,27.39s-19,2.22-14.87,8.35-4.57,11.22-4.57,11.22-19.82,5.08-12.13-1.7,4.18-14.74,4.18-14.74-3-9.13-10.31-10.43-6.52-8-6.52-8-3.26-12.39-20.35-8.35-11.47-5.28-11.47-5.28,3.91-3.72-3.13-12.72-17,10.76-17,10.76-11.34,15.66-8.8,21.53a13.66,13.66,0,0,1-.59,11.34S117.2,664.2,107,661.85s-5.28,5.09-5.28,5.09,9.78,5.67,8.61,11.54-9,11.35-9,11.35-23.09,11.35-14.48,0,5.67-13.11,5.67-13.11-4.3-26.61.39-32.09,2.16-9.58,2.16-9.58-4.11-11.94.39-9.39,11.93-6.85,11.93-6.85,8-3.72,8.22.78a7,7,0,0,0,3.72,6.07s26.08-18.07,10.17-27.46-2.61-9.65-2.61-9.65,17.74,10.43,13.05,0S147,569,147,569s12-12.52,5.48-12.78-29.74,2.35-29.74,2.35-21.65,1.3-14.61-7.57-1.83-11.48-1.83-11.48-45.13-7.82-27.39-16.43,26.87-25.57,26.87-25.57,16.18-4.69,2.35-19-19-.52-19-.52A43.83,43.83,0,0,1,80,501.16c-8.61,10.69-18.53,7-18.53,7s-41.21,4.43-34.69-14.63S15,480.69,15,480.69s-17.48,23.6-10.43,6.9S0,474,0,474V678.09c4.7-14.48,28-3.33,40.7-4.21s16.92,13.41,16.92,13.41,6.36,26,13.3,23.67,9.1-.39,9.1-.39-3.13,6.36,4.11,14.48,11.15,10.27,11.15,10.27S107.8,745.79,97.73,747,86,756.22,86,756.22s-1.5,17,2.93,12.59a16.64,16.64,0,0,1,10.31-4.5c10.37,2.35,8,16.56,8,16.56h19s-.59-1.17-3.92-6.78S124,767.9,124,767.9a15.12,15.12,0,0,0,13.89-1.18c7.31-4.43,9.2,14.15,9.2,14.15h36.43c-.83-.21-1.56-1.6,4.66-9.06,8.48-10.18,9.52-7.18,9.52-7.18s5.87,9.13,1.69,7.31-5.47,8.93-5.47,8.93H208.3c7.57.07,8.61-6.19,8.61-6.19s-1.43-30.78,13.18-22.57,5.61,28.76,5.61,28.76h79.17s8.87-12.84,5.35-17.8S300.52,766.2,300.52,766.2Z"/><path class="cls-1" d="M338,764c-14-.78-16.31,16.89-16.31,16.89h35.22S351.91,764.76,338,764Z"/><path class="cls-1" d="M437.74,749.76c-7.63.66,4.17-16.69,4.17-16.69s-6.19-13.8-11.57-7.73a31.46,31.46,0,0,0-6.75,13.7s-2.08,2,4.79,4.79-2.93,3.23-2.93,3.23-9.49-3.23-9.59-11.55-23.48-12.22-23.48-12.22-16.73-2.16-26.8,6.84-12.75,18-12.75,18-2.15,5.11,0,6.85c0,0,16.69,15.91,37.56,4.44,0,0,16.7-7.7,20.94,2.28s5.21,8,5.21,8,1.76-.33,2.94-6.92,10.82-.06,10.82-.06,7.9,4,6.66,11.8,16.89-11.15,16.89-11.15S445.37,749.11,437.74,749.76Z"/><path class="cls-1" d="M464.22,695.89c-2.22,6.27,2.61,7.79,2.61,7.79s7,.63,11.83-2.6,3.62,5.77,3.62,5.77,2.64,3.23,4.31-2.74,6.16-.43,6.16-.43,7.92,1.8,4.89-7.79S474.26,674,474.26,674s-7.82-2.54-11.54-7.82-9.39-8.81-7.83-22.31A32.48,32.48,0,0,0,449,621.16s-8.8,1.37-13.69,39.71c0,0,.19,10.37,7,12.92s-3.52,3.52-3.52,3.52-2.15-4.31-3.72-7-5.28,3.72-5.28,3.72-2.15,1.37,1.76,2.35.59,6.46.59,6.46-3.92,3.13-4.9-.59-8.6,7.43-8.6,7.43a6.54,6.54,0,0,0-1.05,3.79s8.74,6.39,6.26,16,6.26,12.78,6.26,12.78,7.18-.78,8.09-7,2.09-8.48.78-12.52-6-10.44-6-10.44-2.21-5.74,5-3,9.13-2.87,9.13-2.87,5.22-4.17,3.78,2.74,7.18,4.31,7.18,4.31S466.44,689.63,464.22,695.89Z"/><path class="cls-1" d="M495.39,749.11c-5.09-.39-6.26-2.48-6.26-2.48s-8.61-20.21-1.69-19.82a7.21,7.21,0,0,0,7.95-5.74s-3.52-15.52-12-4.83-12,4.57-12,4.57-5.48-21-11.09-8.48,3,17.87,3,17.87,8.61,9.52,18.79,14.09-5.09,7.17-5.09,7.17-5.74,2.35-4.7,2.61,2.74,4.82,2.74,4.82-9.91,6.79-6.78-.13,1.18-6.65,1.18-6.65S448.7,765.94,458,767.37s9.49,13.5,9.49,13.5h15c0-.59.07-1.71.15-3.71.26-6.53,3.52-2.48,3.52-2.48s.26,5.74,10.7.39,7.82-12.39,7.82-12.39S500.48,749.5,495.39,749.11Z"/><path class="cls-1" d="M482.48,780.87h0C482.42,782.21,482.48,780.87,482.48,780.87Z"/><path class="cls-1" d="M413,605.9s-4.5-10.57-9,2.73a38.83,38.83,0,0,0,0,24.66s3.52,15.51,19.57,10.17,1.56-41.28,1.56-41.28-4.89-5.28-3.72,10.37S413,605.9,413,605.9Z"/><path class="cls-1" d="M368.61,653.44c4.11-.39,5.09,6.65,9,11.35s15.46,8,15.46,8,2.34-9,0-6.85-7.24,0-7.24,0S371.15,655.2,376,650.11s2.94-10,2.94-10-9.78-12.13-19.18-7S357.65,654,357.65,654C360,655.79,364.5,653.83,368.61,653.44Z"/><path class="cls-1" d="M346.83,613.2c1.95,2.09,14.6,7.43,11.34,3,0,0-14.08-.39-4-8.87,0,0,5.22-2.48,7.3,1.83s10.44-14,10.44-14-.26-6.52-9.52-2-12.39-1-12.39-1-1.44-11.22,1.56-19.44-11.74-2.08-11.74-2.08-5.22,3.65-1.69,12.39,7.17,21.26,9,21.65S344.87,611.11,346.83,613.2Z"/><path class="cls-1" d="M504.78,593.19c-10.43,3.57-10.56-1.19-10.56-1.19s-6.52,2.55-.39-8.41,16.69-10.3,11.74-15.65-8.61-5.22-12-4.05-2,9-1.31,10.44-7.3,8.35-8.74,5.87-1.3,7.3-1.3,7.3-.65,3.92-5.74.92.78,4.77.78,4.77,2,1.13,6.52,0-1.95,3.84-1.95,3.84-4.57,3.65-12.53.65c0,0-7-2.63-3.78,3.64s9.39,1.57,8.87,3.14-13.56,1.83-13.56,1.83-6.66.78,1.3,2.6,12,6.66,17.87,2.87,5.35-6.65,6.91-5.08-1.69,7.82.66,13.3,7.56,9.07,6.78,3-7.31,3.55-4.05-18.62c0,0,1.7-5.35,6.53.26s12.39-9.39,12.39-9.39S515.22,589.63,504.78,593.19Z"/><path class="cls-1" d="M310.5,416.6c-1.08,5.09-6,5.38-7.83,3.82s-3.71-2.16-4.5-1.18a4.11,4.11,0,0,0-.58,2.64s3.13,5.48,5.47,4.5,3,9.39,3,9.39.78,3.43,4.2,0,4.21-7.77,7.24-6.18,5.87.51,2-9.66S311.58,411.51,310.5,416.6Z"/><path class="cls-1" d="M185.09,517.2c5.08-1.83-4.31-8.48-4.31-8.48s-6.39,2.87-5.08,9-10-1.7-10-1.7,5.87-11.86-2-8.47-8.74,8.21-6.79,9.26-.78,6.39-5.21,4.82c0,0-1.7,10.83,3.13,13.57s-4.57,8.61-4.57,8.61-7.75,4.82,3,3.65S166,550.59,166,550.59s5.35,4.17,8,1-1.57-9.39-1.57-9.39-1.82-5.08,6.14-4.3S183,521.63,183,521.63,180,519,185.09,517.2Z"/></g></g></svg>