<?xml version="1.0" encoding="utf-8"?>
<!-- Generator: Adobe Illustrator 22.1.0, SVG Export Plug-In . SVG Version: 6.00 Build 0)  -->
<svg version="1.1" id="Laag_1" xmlns="http://www.w3.org/2000/svg" xmlns:xlink="http://www.w3.org/1999/xlink" x="0px" y="0px"
	 viewBox="0 0 526 841.9" style="enable-background:new 0 0 526 841.9;" xml:space="preserve">
<style type="text/css">
	.st0{clip-path:url(#SVGID_2_);}
	.st1{fill:#2980B9;}
	.st2{clip-path:url(#SVGID_2_);fill:#FFECB3;}
	.st3{fill:#558B2F;}
	.st4{fill:#E74C3C;}
</style>
<g>
	<defs>
		<rect id="SVGID_1_" width="526" height="841.9"/>
	</defs>
	<clipPath id="SVGID_2_">
		<use xlink:href="#SVGID_1_"  style="overflow:visible;"/>
	</clipPath>
	<g id="Zee" class="st0">
		<rect y="-0.1" class="st1" width="527" height="565"/>
	</g>
	<path id="Platteland" class="st2" d="M0,0v841.9h526V544.8c0,0-2.4-4.7-2.8-6.9c-0.4-2.2,2.8-11.9,2.8-11.9v-3.5
		c0,0-4.7,0.7-4.4-4.9c0.2-5.6-3.1-5.8-3.1-5.8l-0.9-1.1c0,0-1.2-3.9,1.4-5.6c2.6-1.8,7.1-1.1,7.1-1.1V184.4c0,0-2.4-0.7-4.8,0
		c-2.4,0.7-10.1,2.7-22.7,12.5c0,0-25.8-0.8-29.7,25.4c0,0-8.7,5-12.9,2.2c0,0-10.4,1.5-18.8,6.8c-8.4,5.2-23.9-4.7-23.9-4.7
		s-2.4-1.7-3.9-2.1c-1.6-0.4-2.5,4.6-2.5,4.6s-0.9,5.1-5.3,5.4c-4.4,0.3-3.4,3.4-3.4,3.4s4.2,7,7.3,5.6c3.2-1.4,2,5,2,5
		s-0.4,6.9,0.5,8.4c0.9,1.6,8.3-1.7,8.3-1.7s8.9-7,11.6-6.8c2.7,0.3,14.2-6.3,14.2-6.3s11.7-5,13.1-0.4c1.4,4.6-3.5,13.4-3.5,13.4
		s-1,2.5,3.7,2.9c4.8,0.5,10.3,0.4,10.3,0.4s19.2,1.7,20.5,2.2c0,0,12,1.7,12.9,3c0.9,1.3,5.8,1.1,5.8,1.1s7.4,2.8,7.4,7.2
		c0,4.4,9,8.1,9,8.1s3.7-0.6,0.3,5.8c0,0-1.7,2.4,0.7,5.9c2.3,3.4,0.8,17.5,0.8,17.5s-0.7,1.8,0.7,3.6c1.4,1.8-3.5,8-3.5,8
		s-11.5,0.9-15.8,6.8c-4.3,5.9-3,16.4-3,16.4s0.6,7.6-3.4,14.5c-4,6.8,6.6,19,6.6,19s3,2.7,6.4,4.2c3.3,1.5,10.8,1.5,10.8,1.5
		s2.4-0.3,1.1,3.8c-1.4,4.1,1.3,9.5,1.3,9.5s1.2,0.8-2.3,5c-3.4,4.2-3.1,17.3-3.1,17.3s-0.8,12.9,0.8,17.8c1.6,4.9,3,8,4.4,8.7
		c1.4,0.7,1.8,6.5,1.8,6.5s2.3,9-8.7-7.3c-11.1-16.3-7-28.3-7-28.3s-0.9-27-26.4-40.3c0,0-12.5-3.7-33.6-5.8c0,0-3.1,8.4-27.9-34.7
		c0,0-5.6-7.4-12.1-2.9c-6.5,4.6,4.8,12.7,5.7,15c0.9,2.3,4.3,8-3.5,10.3c-7.8,2.3-27.7-0.9-27.7-0.9s-3.8-3.7,9-12.1
		c12.8-8.5,5.9-18.9,5.9-18.9s-2.3-10.8-13.3-4.8c0,0-4.6,4.3-9,7.2c0,0-8.8,3.1-11.3,3.8c-2.6,0.7-12.3-1-15.9,1.2
		c-3.6,2.2-23.5-12.3-34.4-14.4c-10.8-2.1-29.3-16.4-29.3-16.4s-5.4-8-15.3-10.1c-9.9-2.2-10-14-10-14l-1.4-8.7
		c0,0,22.4-5.8,31.3-1.4c8.9,4.4,27.4-15.8,27.4-15.8s16.8-6.9,22.8-1.8c6,5.1,30,1.3,30,1.3s10-2.2,17.7,9.1
		c7.7,11.3,22.3,23.9,28.3,23.9c6.1,0,11.3-7.1,11.3-7.1s11.5-6.8,13.9-5.4c2.3,1.4,6.8-7.4-2.1-7.9c-8.9-0.5-8.4-11.3-15-8
		c-6.6,3.3-12.8,11.5-14.1,10.6s-3.6-0.8-6.1-9c-2.5-8.2-8.6-15.6-8.6-15.6s-2.1-9.8,3.7-9.4c0,0,3.2-2.5,3.8-4
		c0.6-1.5,1.7-4.6,0.8-4.8c-1-0.2-0.8-0.1-1.6-0.1c-0.8,0-7.1-0.1-8-1.6c-0.9-1.5-9.7-5.8-9.7-5.8s-3.3-1.4-6-0.8c0,0,1-1.4,0.1-3.1
		c-0.9-1.7-4-2.4-4-2.4s-3.9-1.2-5.5-4.6c0,0-0.4-3.3-2.5-5c0,0-4.2-1-6.1-6.2c0,0-0.1-2-1.8-1.7s-1.2-0.5-1.2-0.5s0.6-2.9-4.9-9.2
		c-5.6-6.3-22.8-23.5-28-27S315,144.5,315,144.5s-8.2-8.4-15-9c0,0-2.1-0.1-4-1.5c-1.9-1.4-17.9-11.6-26.8-14.6
		c0,0-27.4-28.2-26.5-47.6l-8.2-0.7c0,0-9.6,3.6-10,3.7c-0.5,0.1-20.3,3.8-18.5-3.7c1.8-7.4-24.1,16.1-24.1,16.1s-12.2,8.4-22.5,7.2
		c-10.3-1.2-31.1,5-31.1,5s-1.7,0.9-2,2.6c-0.3,1.8,0.2,6.2,2.8,8.3c2.6,2.2,3.5,7.5,3.5,7.5s5.2,10.6-5.5,5.5
		c-10.7-5.1-9.7-9.2-9.7-9.2s-1.4-2.9-4-4.1c-2.6-1.1-1.2-12.1-1.2-12.1s-0.2-5.5-4.2-7.2c-4-1.7-5.2-6.3-5.2-6.3s-0.5-4.4,1.4-8.4
		c1.9-4,5.1-3.7-2.3-10.1c-7.4-6.4-4,0-4,0s2.9,10.9-4.6,0.8c-7.6-10.1-15.2-3.7-15.2-3.7s-3.9,3.1-5.5-5.8c-1.6-8.9-9-18.1-9-18.1
		S52,29.1,67,29.3s24,6.1,24,6.1s13.3,2.3,15.8-3.3c2.5-5.6,5-8.7-2.9-14.1c-7.8-5.3-3.8-10.7-3.8-10.7l4-7.4H0z"/>
	<g id="Water" class="st0">
		<path class="st1" d="M353.8,835.4c0,0-7-17.7-4.4-30.4c2.5-12.6,23.1-21.6,23.1-21.6s32.4-16.1,38.2-26.5
			c5.8-10.4,16.4-11.5,21.1-36.4c4.7-24.9,6.7-30.5,6.7-30.5s2.3-2.2-6-9.7c-8.3-7.4,15-34.7,15-34.7s5.3-17.3,10.6-24.3
			c5.3-7,7.3-31.8,7.3-31.8s4.9-14.9,11.9-16.5c7-1.6,16-28.2,16-28.2s2.6-2.3,5-9.3c2.4-7,1.1-13.1,9.9-17.1c0,0,4.5-1,9.5-7.7
			l0.9,1.1c0,0-5.1,6.9-10.2,9.3c0,0-3,0.6-3.7,2.3s-3.1,2.3-4,11.1c-0.9,8.8-6.7,15.9-6.7,15.9s-2.5,2.1-5.8,10.2
			c-3.2,8.1-8.5,12.9-8.5,12.9s-5.9,2.9-5.7,5.2c0,0-2.7,5.7-4.6,5.6c-1.9-0.2-3.2,11.2-3.2,11.2s-0.5,10.1-1.7,13.1
			c-1.2,3-4.6,12.2-4.6,12.2s-6.7,11.2-6.8,13c-0.2,1.9-3.4,9.4-3.4,9.4s-0.7,4.5-4,7.5c-3.3,3-10.4,16.7-10.4,16.7
			s-4.6,9.1-1.6,9.9c0,0,3.2,3.6,5.4,5s5-4.3,5-4.3s3.3-7.1,5.5-15.9c2.2-8.8,17.9-26.2,17.9-26.2s7.5-3.5,9-22.9
			c1.5-19.4,10.6-27,10.6-27s1.1,0,4.1-6.1c3-6.1,11.7-18.9,11.7-18.9s7.4-9.9,12-13.1c4.6-3.2,6.9-15.8,6.9-15.8s3.4-8.2,4.2-9.5
			v3.5c0,0-3.1,10.3-2.7,12.2c0.4,2,2.7,6.7,2.7,6.7s-6.1,6.7-9.2,9.4c-3.1,2.7-1.4,0.2-7.7,7.3c-6.3,7.2-7.6,10.1-7.6,10.1
			s-6.9,10.8-9.3,16.6c0,0-2,3.9-6.1,7c-4.1,3.1-7.3,15.1-7.3,15.1s-2.2,12-3.2,16.2c-1,4.2-7.4,11.1-7.4,11.1s-6.8,7-8.1,10.1
			c-1.4,3-6.1,6.6-8.5,14.6c-2.4,8-7.9,21.2-7.9,21.2s-4.6,15.1-6.1,24.1c-1.6,9-2.7,14.3-2.5,17.9c0.2,3.6-5.5,8.1-5.5,8.1
			s-2.1,3.6-1.8,6.8c0,0,0.5,1.6-3,2.7c0,0-4.3,3.8-6.8,8.5c-2.5,4.7-7.3,10.4-22.7,23.4c0,0-12.2,7.1-19.9,9.6
			c-7.6,2.4-18.3,14.9-18.3,14.9s-3,5.9-3.7,7.3c-0.7,1.5-2.5,6.5-1.5,8.3c0,0-0.5,6.8,3.5,15.3c0,0,3.6,9.7,3.3,11.3l-2.1,0
			C356.9,841.9,355.4,837.8,353.8,835.4"/>
		<path class="st1" d="M300.5,827.2l7.9-3.2c0,0,2.7-8.7-12-10.1c0,0-6.7-7.8-2-16c4.7-8.2-8.7,0.6-8.7,0.6s-0.5,3.5,2.5,3.3
			c3-0.2-0.5,4.9-0.5,4.9s-2.3,3.1-0.1,5c2.3,1.9-2.4,5.2-2.4,5.2s-2.3,2.3,1.5,2c3.7-0.4,3,3.4,3,3.4s-0.4,2.2,2-0.6
			C294.3,818.8,300.5,827.2,300.5,827.2"/>
		<path class="st1" d="M210.8,782.1c0,0,5.9,12.3,9.8,11.8c0,0,1.2-0.3,0.7,0.3c0,0,1.7-0.6,3.3,0.2c0,0,6.7-0.2,6.4-5.6
			c-0.3-5.3-5.8-9.3-5.8-9.3s-5.5-3.9-9.8-0.9C211.2,781.6,209.7,780,210.8,782.1"/>
		<path class="st1" d="M250.3,685.3c0,0-1.2-9,3.9-14.9c0,0,1.4-2.9,0.7-8.2c-0.7-5.3,4.4-6.2,4.4-6.2s1.7-4.5,2-8.4
			c0.3-3.9,4.2-3.3,4.2-3.3s2.3-7.1-1.6-4c-3.8,3.1-6.7,8.6-6.5,9.4c0.2,0.8-4.3,5.5-5.6,3.8c-1.3-1.7-5.3,13.5-5.3,13.5
			s-1.2,2.4,1.2,3.9c2.3,1.5,1.2,9.8,1.1,11C248.8,683.1,247.1,686.4,250.3,685.3"/>
		<path class="st1" d="M249.6,623.3c0,0,2,4.9,5.1,2.4c3.1-2.4,5.1-11.9,5.1-11.9s1.1-10.7-3.5-15.5c0,0-1.8-1.6-2-4
			c0,0-0.6-0.5-1-1c-0.4-0.6-1.4-3.7-3.5-4.3c0,0-1.2-0.7-3,0.7c0,0-0.6,5.7,0.4,6.4c1,0.7,1.1,8.9,1.1,8.9S248.4,619.5,249.6,623.3
			"/>
		<path class="st1" d="M4.6,477.9c0,0-2.5,11.8,6.7,8.8c9.3-3,15.3-13.6,15.3-13.6s0.6-0.8,0.7-4.2c0.1-3.4,2.1-3.8,2.1-3.8
			s5-3.3,5.1-10.5c0.1-7.1,4.7-5.7,4.7-5.7s1.8-1.6,0-3.2c-1.8-1.7-0.6-2.6-0.6-2.6s-2.5-0.2-4.1-0.1c0,0-4.2-0.2-4.3-0.2
			c-0.1,0-2.1,7.1-4.4,8.5c-2.3,1.4-2.5,9.2-2.5,9.2s-2.1,3.6-3.7,4c-1.6,0.4-5.8,7.4-7.2,9.2C10.9,475.6,4.9,474.4,4.6,477.9"/>
		<path class="st1" d="M98.6,594c0,0-0.1,4.2,1.8,2c2-2.2,4.7-6.7,6.3-3.8c1.6,2.9,1.8,4.2,6.1,0.1c4.3-4,9.8-7.3,1.7-8
			c-8.1-0.7-10.8-2.5-3.4-6.9c7.4-4.4,17.2-10.3,6.1-6.8s-15.8,8.1-15.8,8.1s-2.7,2.6-2.9,4.4C98.5,584.9,97.2,590.9,98.6,594"/>
		<path class="st1" d="M142.8,548.3c0,0,8.2-5.3,11-11.2c2.7-5.9,13.3-8.6,13.3-8.6s3.9-7.4-6.6-1.6c-10.5,5.9-11.4,7.5-13,4.9
			c-1.6-2.6-4.3-3.2-4.7,5.7C142.4,546.4,140.3,547,142.8,548.3"/>
		<path class="st1" d="M196.2,387.7c0,0,3.8-12,10.6-6c6.8,6,15.1,22.2,11.5,26.3C214.6,412.2,195,390.4,196.2,387.7"/>
		<path class="st1" d="M0,189.3c0,0,7.2-1.2,8.7,0c1.6,1.2,6.1,5.1,10.2,5.2c4,0.1,11.7,1,12.8,0c1-1,16.2-4.7,21-2.1
			c4.8,2.6,14.6,8.6,15.1,12.4c0.5,3.8,19,20.6,19,20.6s14.2,1.3,19.7,0c5.5-1.3,10.6,7.7,10.6,7.7s6,8.7,10.6,10.3
			c4.6,1.6,20.3,2.3,22.6,3.9c2.2,1.6,10.7,3.5,14.7,7.2c4,3.7,24.9,5,31.7,4.2c6.8-0.7,7,2.8,7,2.8s0.1,2.4,6.3-1.1
			c6.2-3.5,11.2,0.2,11.2,0.2s12,3.9,15.7,1.7c3.7-2.2,5.3,6.3,5.3,6.3s0,2.6,7.6,3.7c7.6,1,10.7,6.4,10.7,6.4l-1.3-8.7
			c0,0-14.9-8.3-11.7-17.6c0,0,3.1-6,19.4-5.3c16.3,0.8,18.2-30.8,18.2-30.8s-1.6-5.2-5.9-15.4c-4.3-10.2-14.1-8.4-1.2-16.2
			c12.9-7.8,18.8,6.3,19,10.2c0.2,3.9,24.4,6.3,24.4,6.3s6-5.9,2.5-20.9c-3.4-15-3.2-14.8-3.2-14.8s-2.3-4.4-3.4-1.7
			c0,0-1,3.7-1.9,5.9c-0.8,2.2-3.3,1.4-3.3,1.4s-2.4,1.2-3.1-6.1c-0.7-7.3-2.1-12.3-2.1-12.3s0.1-4.4-1.6-5.5
			c-1.7-1.1-2.3-3.5-6.1-5.1c0,0-8.8-0.7-13.7-3.9c0,0-6.5-2.1-6.5,3.6c0,5.6,2.5,14.4,2.5,14.4s0.3,3-5.3,7.4
			c-5.6,4.4-15.9,8.4-16.5,11.3c-0.6,2.9-4.5-0.8-4.4-2.5c0.1-1.8-1.3-1.5,1.8-6c3-4.5,11.9-16.2,5.1-18.2
			c-6.8-2-24.9,12.1-25.6,15.8c-0.7,3.6-11.4-2.7-11.1-5.2c0.3-2.4,5.6-10,9.1-11.5c3.5-1.4,5.3-17,5.3-17s4.7-10.2,3.2-15.2
			c-1.5-5-10.3-8-11.9-12.7c-1.6-4.7,3.5-9.1,3.8-14S234.5,71,234.5,71s-5.4,2.2-9.9,3.8c0,0-2.2,10.9-1,17.7
			c1.2,6.8,5.5,16.8,10.7,19.2c5.2,2.3,5.3,5.3,5.3,5.3s-0.1,6.6-3,10.8c0,0-2.8,6.3-2.2,10.6c0.7,4.4-8.1,11.7-8.1,11.7
			s-4.2,2.4-4.6,8.5c-0.4,6.1,10,14.1,10,14.1s14.7,5.5,15.8,10.8c1.1,5.3,7.4,10.4,7.4,10.4s0.3,3.3,1.6,9.1c1.3,5.8,14,6.9,14,6.9
			s7.8,0.1,3.3,16.8c0,0-2.2,4-8.5,4c0,0-4.7,2-7,6.8c-2.3,4.9-13,5.2-13,5.2s-7,7.3-10.1,5.9c-3.1-1.5-16.8-2.5-26.7,0.9
			s-16.8-1.1-16.8-1.1s-6.1-0.9-11.8,3c-5.7,3.9-21-2.9-21.7-3.3c-0.7-0.4-13.3-7.1-17.6-7.6c-4.3-0.5-18-4.4-19.7-9.7
			c-1.7-5.3-11.2-9.9-26.4-9.5c-15.3,0.4-25.1-23.4-25.1-23.4s-6.1-10.1-17-10.7c-11-0.6-26.5,4.2-26.5,4.2s-7.2,1.5-14.2-5.1
			c-6.9-6.6-11.6-3-11.6-3V189.3z"/>
		<path class="st1" d="M427.8,734c0,0-32-16.4-39.8-34.9c-7.8-18.5-36.2-20.2-36.2-20.2s-1.7,0.2-5-4.7c-3.4-5-11.4-20.5-10-36
			c1.5-15.5,3.2-26.3,6.8-33.9c3.7-7.6,41.2-33.3,41.2-33.3s8.6-10.4,10.6-27.5c2-17.1-12.3-32.8-12.3-32.8s-15.9-23.1-14.5-33.9
			c1.4-10.8,8.6-26.3,14.1-30.4c5.5-4,4.9-25.1,4.9-25.1s-4.5-3.9-6.1-3.7c-1.6,0.2,1,17.5-1.1,21.4s-10.8,17.3-14.1,26.2
			c-3.3,8.9-3.9,18.5-1,21.5c2.9,3,6.8,12.9,6.8,12.9s10.7,15.9,12.3,17.3c1.6,1.4,8.6,11.8,4.7,19.6c0,0-2.7,5.9-3.7,11.8
			c-1,5.9-0.6,14.4-7.8,19.6c0,0-3.2,4.8-12.2,11.1c-9.1,6.3-25.5,24.7-25.5,24.7s-7,17.2-7.6,29.5c-0.6,12.3,0,22.4,0,22.4
			s0.6,9.1,6.8,15.9c6.3,6.8,13.5,13.9,13.5,13.9s8.4,6.9,15.8,3.7c7.4-3.2,23.5,21.7,23.5,21.7s28,29.3,34.5,26.1"/>
	</g>
	<g id="Bos" class="st0">
		<path class="st3" d="M308,325.3c0,0-2.9-10.4-7.6-8.9c-4.7,1.6-29.7-7.8-54.8-6.8c-25,1,6.8,26.1,6.8,26.1s10,6.8,19.6,6.3
			c9.6-0.5-9,9.9-9,9.9s-4.4,9.4,12.9,2.6c17.2-6.8,12.5,8.3,12.5,8.3s-7.8,4.7,0,7.8c7.8,3.1,3.1,18.3,3.1,18.3
			s-33.4,1.6-62.1,14.1c-28.7,12.5,17.7,17.3,17.7,17.3s7.8,1.5-3.7,5.2c-11.5,3.7-15.7,11.5-15.7,11.5s6.6,6.8,35.1,0
			c28.5-6.8,69.2,20.3,69.2,20.3s26.1,17.7,30.3,0c4.2-17.7-18.3-21.9-18.3-21.9s-15.1-13,12.5-19.3c27.7-6.3,37,12,37,12
			s0.5,11-15.1,30.3c-15.7,19.3,7.8,53.2,7.8,55.3c0,2.1,10.4,5.7,19.3-30.8c8.9-36.5,18.3,9.9,18.3,9.9s5.2-0.5-6.3,15.7
			c-11.5,16.2,7.4,21.4,7.4,21.4s11.3,10.4,19.7-15.1c8.3-25.6,28.7-10.4,28.7-10.4s16.7,0.5,30.8-25c14.1-25.6,0-24.5,0-24.5
			s-35.5-8.9-23.5-15.7c12-6.8,12-48.5,12-48.5s-4.2-18.3-44.3-18.3c0,0-10.4,4.2-14.1-9.4c-3.7-13.6-23.8-0.5-23.8-0.5
			s-20,1.6-30.4-4.2c-10.4-5.7,16.7-18.8,16.7-18.8s5.2-19.8-8.9-16.7c0,0-8.9,6.3-32.3,12.5s-24,25.6-22.4,26.1
			c1.6,0.5-3.1,23.5-11-5.2C322.3,356.1,304.6,346.7,308,325.3"/>
		<path class="st3" d="M455.9,258c0,0,38,2.3,43.4,6.3c5.5,3.9-5.1-11.7-5.1-11.7s-0.4-6.7,9-4.3c9.4,2.3-2.3-9-2.3-9
			s-7.8-4.3-1.2-16.4c6.7-12.1,23.5-18,23.5-18s5.9-21.5-2-20.3c-7.8,1.2-22.7,12.5-22.7,12.5s-9,0.4-17.6,5.1
			c-8.6,4.7-12.4,20.2-12.4,20.2s-8.3,5.1-12.6,2.4c0,0-9.8,1.3-18.8,6.8c-9,5.5-23.9-4.7-23.9-4.7s-4.3,1.6-5.1,11
			c-0.8,9.4,4.3,14.1,4.3,14.1s-1.2,6.7,17.2-6.7c18.4-13.3,31.7-6.3,31.7-6.3s3.5,0.8-2.3,8.6C453.1,255.3,451.6,257.7,455.9,258"
			/>
		<path class="st3" d="M399.5,268.2c0,0,13.3,3.9,0-12.5c0,0,1.2-8.6-8.2-14.9c-9.4-6.3-1.6-18-1.6-18s-2-9.3-14.1-6.1
			c-12.1,3.1-10.3,10.8-10.3,10.8s-12.6,9.1,0,14.9c12.6,5.8,9.7,5.4,17.2,4.2C390.1,245.5,399.5,268.2,399.5,268.2"/>
		<path class="st3" d="M306,238.4c0,0,2,9,10.2,8.6c8.2-0.4,9.4-4.6,9.4-4.6s-3.9-14.5-9.8-15.3c0,0-3.9-0.4-3.9,4.3
			c0,4.7-10.6-4.3-10.6-4.3s-3.5-9-4.3-6.3c-0.8,2.7-5.1,8.4-7.8,21.6c0,0-11,5-3.5,9.7c7.4,4.7,13.3-4.7,13.3-4.7
			S302.2,231.9,306,238.4"/>
		<path class="st3" d="M345.9,193.8c0,0,6.3,7.8,11.7,0c0,0,6.3-4.7-34.4-38.7c-40.7-34-54-35.6-54-35.6s-26.6-26.2-28.6-45.4
			c0,0-7.8-3.1-3.1,12.9c0,0-1.6,11.3,5.5,20.3c7,9,6.7-0.8,6.7-0.8s3.9-5.1,7.4,9.8c3.5,14.9,13.3,9.8,13.3,9.8s10.1,4,12.7,9.4
			c2.6,5.4,16.3,6.6,16.3,6.6s10.6,5.9,10.6,16c0,10.2,3.1,12.9,3.1,12.9s2.3,1.2,3.9-6.3c1.6-7.4,8.6,10.2,8.6,10.2s9.8,4.7,9,13.3
			c0,0,3.9-4.3,9.8,3.1C350.2,198.9,345.9,193.8,345.9,193.8"/>
		<path class="st3" d="M207.8,245.5c0,0,31.3,1.7,36.4-3.1c5.1-4.8,2.7-13.4,2.7-13.4s-10.6-4.7-13.3,7.8c0,0-2.6,4.3-6-2
			c-3.4-6.3-15.1,2.1-15.1,2.1S210.1,238.8,207.8,245.5"/>
		<path class="st3" d="M225.4,228.2c0,0,7.8-2.4,12.1-11.9c4.3-9.5-17.4-8.7-17.4-8.7S218,214.8,225.4,228.2"/>
		<path class="st3" d="M220.1,197.3c0,0,4.6-6.2,8.9-2.7c4.3,3.5,2.3,8.6,2.3,8.6S221.8,204.7,220.1,197.3"/>
		<path class="st3" d="M145.2,209.5c0,0,23.1-12.5,41.5,3.1c0,0-10.6-15.1,2.3-19.1c12.9-4,16.4,4.9,16.4,4.9s12.5,8.2,9-14
			c-3.5-22.3-9.8-29.7-9.8-29.7s-19.6-17.9-43.8-19.1c0,0-12.5,3.9-12.5,11.3s-8.6-11.3-8.6-11.3s-14.5,1.5-15.3,10.5
			c-0.8,9,17.2,12.1,17.2,12.1s-3.5,3.9,7.4,5.1c11,1.2,6.3-8.2,7.8-7c1.6,1.2,6.5-7,12.8,7.8c0,0,1.3,6.7,11.4,4.3
			c10.2-2.3,0.4,19.6,0.4,19.6s-4.3,8.5-28.2,9.3C129.5,198.1,145.2,209.5,145.2,209.5"/>
		<path class="st3" d="M89.2,152.9c0,0,8.4,17,22.7,9c14.3-8,2-21.7,2-21.7s-7-4.3-25.8,2.5c0,0-3.1,0.8-14.1-5.9
			c0,0-7.4-6.3-8.4,6.8c0,0,13.1-2.9,13.5,0.8s-5.3,7.2-5.3,7.2S59.1,147.5,62,151c2.9,3.5,14.1,7.4,14.1,7.4s5.7-3.8,6.8-8.7
			c1.2-4.8,10-2.5,10-2.5S97.2,152.5,89.2,152.9"/>
		<path class="st3" d="M25.4,106.8c0,0,16.6-8.2,20.9-3.5c4.3,4.7,17,16.8,23.1,16.8c6.1,0,16.8-6.1,16.8-6.1s4.5-6.7-1.8-5.9
			c-6.3,0.8-14.3-4.5-14.3-4.5s-3.3-2.9,3.1-3.5c6.5-0.6-10.6-11-10.6-11s-4.1-1.6,2.5-5.3C72,80.2,53.6,69,53.6,69
			s-10.8-6.5-21.3,0c-10.6,6.5-2.2,11-2.2,11s8.2,7.6,15.5,7.2c7.2-0.4,1.6-6.1,1.6-6.1s2.5-7.2,7-0.2c4.5,7-7.6,12.2-7.6,12.2
			s8.3,3.5,11.7-1.4c3.5-4.9,1.4,7.4,1.4,7.4s1.6,6.3,7.6,6.3c6,0,1.2,2.7,1.2,2.7s-3.9-0.6-18.6-10.2c0,0-6.1-6.8-17.6-4.9
			c-11.5,1.9-15.5,13.1-15.5,13.1S15.1,110.7,25.4,106.8"/>
		<path class="st3" d="M0,74.7V64.1c0,0,3.1-1.6,5.7-2.9c2.5-1.4,1.2,6.8,1.2,6.8s3.7,3.2,7.2,1.7S12.9,77,12.9,77S2.2,77.8,0,74.7"
			/>
		<path class="st3" d="M1,144.7c0,0,4.9,8.2,11,6.7c6.1-1.6,7.8-0.6,11.7-3.2c3.9-2.6,2.2,1.6,2.2,1.6s-3.3,3.8-10.4,5
			c0,0-5.2,5.3-9.9,2.9S0,153.3,0,153.3v-8.6H1z"/>
		<path class="st3" d="M16.8,250.2c0,0-1.8-9.4,3.7-8.2c5.5,1.2,7.2,17.8,7.2,17.8s-0.3,12.9-5.6,11.9c-5.3-1-8.1-5.9-8.1-5.9
			s1.6-5.3,4.1-5.7C20.7,259.8,16.8,250.2,16.8,250.2"/>
		<path class="st3" d="M27.8,281.1c0,0,10.2-8.6,20,2.7c0,0-6.3,5.5,0,8.8c6.3,3.3-6.3,12.5-6.3,12.5s-2.5,1.8,4.5,6.7
			c7,4.9,1.6,18.4,1.6,18.4s-9,4.5-18.6-8.8c0,0,7.8-0.6,6.8-6.3c-1-5.7,0.6-13.9,0.6-13.9s2-2.2-5.9-6.1
			C22.7,291.3,27.8,281.1,27.8,281.1"/>
		<path class="st3" d="M80,302.1c0,0,5.3-3,6,0c0.7,3-2.3,6-2.3,6S79.8,308.2,80,302.1"/>
		<path class="st3" d="M80,316.2c0,0,2-5,6.9-2.3c5,2.6-0.3,5.2,12.4,5.3c12.7,0.1,7.3,8.1,7.3,8.1s-5.5-2.2-6,5
			c-0.5,7.2-5,8.3-5,8.3s-4.6-2.7-1.8-11.3c2.8-8.6-7.8-3-7.8-3S79.3,325,80,316.2"/>
		<path class="st3" d="M130.2,320.2c0,0,5.7,1,13.6-10.4c0,0,5.2-2.7,3.3,5.2c-2,7.9,12.1,2.5,12.1,2.5s6.5-2.2,8.1,6.5
			c1.6,8.7,0,12.1,0,12.1s-5.6,0.4-6.1-3.7c-0.5-4-5.5,2.1-5.5,2.1s-9,0.1-11.3-7c-2.3-7.2-6.1-0.7-6.1-0.7S124.4,322.3,130.2,320.2
			"/>
		<path class="st3" d="M167.9,400.3c0,0-1.6-16.2,6-14.9c7.6,1.3,7.4,6.1,7.4,6.1s2.1,8.2,10.8,5.7c8.7-2.5,5.6,10.3,5.6,10.3
			s-4.2,12.9,10,15.7c14.2,2.7,4.7,7.4,4.7,7.4s-8.1,4.3-0.1,4.6c8,0.3,8.5-4.4,8.5-4.4s3.1-4.5,4.3,4.4s-8.6,13-8.6,13
			s-15.1-4-16.6-13.8c-1.4-9.8-8.7-13.5-8.7-13.5s-5.9-4.5-6,5.8c-0.1,10.3-6.8-4-6.8-4s-8-9.8-5.1-15c0,0,3.3-2.9,10,0.1
			c6.8,3,5.7-4.7,5.7-4.7s-7.4-5.5-9,0.9c-1.6,6.4-4.8-6.1-4.8-6.1s-5.1-0.8-5.1,3.3C170.2,405.3,167.9,400.3,167.9,400.3"/>
		<path class="st3" d="M0,535c0,0,11.6-3.1,4.6,13.6c-7,16.7,10.4-6.9,10.4-6.9s18.3-6.2,11.7,12.9c-6.5,19.1,34.7,14.6,34.7,14.6
			s9.9,3.7,18.5-7c8.6-10.7,9.1-23.2,9.1-23.2s5.2-13.8,19,0.5c13.8,14.3-2.3,19-2.3,19s-9.1,17-26.9,25.6
			c-17.7,8.6,27.4,16.4,27.4,16.4s8.9,2.6,1.8,11.5c-7,8.9,14.6,7.6,14.6,7.6s23.2-2.6,29.7-2.3c6.5,0.3-5.5,12.8-5.5,12.8
			s-11.7,9.1-7,19.6c4.7,10.4-13,0-13,0s-13.3,0.3,2.6,9.7s-10.2,27.5-10.2,27.5s-3.5-1.6-3.7-6.1c-0.2-4.5-8.2-0.8-8.2-0.8
			s-7.4,9.4-11.9,6.8c-4.5-2.5-0.4,9.4-0.4,9.4s2.5,4.1-2.2,9.6c-4.7,5.5-0.4,32.1-0.4,32.1s2.9,1.8-5.7,13.1
			c-8.6,11.3,14.5,0,14.5,0s7.8-5.5,9-11.3c1.2-5.9-8.6-11.5-8.6-11.5s-4.9-7.4,5.3-5.1c10.2,2.3,24.3-12.7,24.3-12.7
			s3.1-5.5,0.6-11.3c-2.5-5.9,8.8-21.5,8.8-21.5s10-19.8,17-10.8c7,9,3.1,12.7,3.1,12.7s-5.6,9.3,11.5,5.3c17.1-4,20.3,8.3,20.3,8.3
			s-0.8,6.7,6.5,8c7.3,1.3,10.3,10.4,10.3,10.4s3.5,8-4.2,14.7c-7.7,6.8,12.1,1.7,12.1,1.7s8.7-5.1,4.6-11.2
			c-4.2-6.1,14.9-8.3,14.9-8.3s23.3-0.4,20.6-27.4c0,0-2.2-5.1,7-6.1c9.3-1,3.5-24.1,3.5-24.1s-3-10.2,8.6-4.6
			c11.6,5.6,8.7,17.9,8.7,17.9s-7.3,12.1-15.4,15.3s5.2,17.1,5.2,17.1s5.6,4.6-7.4,5.7c-13,1.2-17.1,9.8-17.1,9.8
			s-14.6,12.9-2.6,15.3c0,0,3.9-2.2,10.4-2c6.5,0.3,0.5,12.3,0.5,12.3s-2.9,4.3,6.5,0.3c9.4-4,7-8.2,11.2-6.5
			c4.2,1.7,2.6,10.8,2.6,10.8s0.3,3,3,4c2.7,1-3.5,5.1-3.5,5.1s-3.1,1.5,4.3,5s3.4,11.6,3.4,11.6s-6.9,4.2-14.2,0
			c-7.3-4.2-16.6-2.6-16.6-2.6s-10.7,4.4-0.5,7c10.2,2.6,10.6,5.3,15.5,4.7c5-0.7,5.6-3.8,7.2-1.6c1.6,2.2-2.2,10.2-2.2,10.2
			s-11.5,8-29.7,5.7c0,0-4.4-3.1-1.6-10.3c2.9-7.2-33.7-3.3-33.7-3.3s-4.7,0.5-4.8,5.2c-0.1,4.7,3.3,9.3,3.3,9.3s6.5,4,12.1,2.3
			c5.6-1.7,8.5,7.3,8.5,7.3s7.3,3.1,14.3,1c7-2.1,5.3,12,5.3,12s4.4,5.3,10.3,1.2c5.9-4.2,17,2.6,17,2.6s8.9,2.1,8.6,8.9
			c-0.3,6.8,15.1,0,15.1,0s16.2-8.1,19.7-3.1c3.5,5-5.3,17.8-5.3,17.8h-79.2c0,0,9-20.5-5.6-28.8c-14.6-8.2-13.2,22.6-13.2,22.6
			s-1,6.3-8.6,6.2H194c0,0,1.3-10.8,5.5-8.9c4.2,1.8-1.7-7.3-1.7-7.3s-1-3-9.5,7.2c-8.5,10.2-4,9.1-4,9.1l-37,0
			c0,0-1.9-18.6-9.2-14.1c-7.3,4.4-13.9,1.2-13.9,1.2s-5.1,0.6-1.8,6.2c3.3,5.6,3.9,6.8,3.9,6.8h-19c0,0,2.3-14.2-8-16.6
			c0,0-5.9,0.1-10.3,4.5c-4.4,4.4-2.9-12.6-2.9-12.6s1.7-8.1,11.8-9.3s-2.4-11.6-2.4-11.6s-3.9-2.2-11.2-10.3
			c-7.2-8.1-4.1-14.5-4.1-14.5s-2.2-2-9.1,0.4c-6.9,2.3-13.3-23.7-13.3-23.7s-4.2-14.3-16.9-13.4c-12.7,0.9-36-10.3-40.7,4.2V535z"
			/>
		<path class="st3" d="M321.7,841.9c0,0,2.3-17.7,16.3-16.9c14,0.8,18.9,16.9,18.9,16.9H321.7z"/>
		<path class="st3" d="M352.8,816c0,0,16.7,15.9,37.6,4.4c0,0,16.7-7.7,20.9,2.3c4.2,10,5.2,8,5.2,8s1.8-0.3,2.9-6.9
			c1.2-6.6,10.8-0.1,10.8-0.1s7.9,4,6.7,11.8c-1.2,7.8,16.9-11.2,16.9-11.2s-8.5-14.2-16.1-13.6c-7.6,0.7,4.2-16.7,4.2-16.7
			s-6.2-13.8-11.6-7.7c-5.4,6.1-6.8,13.7-6.8,13.7s-2.1,2,4.8,4.8c6.9,2.8-2.9,3.2-2.9,3.2s-9.5-3.2-9.6-11.5
			c-0.1-8.3-23.5-12.2-23.5-12.2s-16.7-2.2-26.8,6.8c-10.1,9-12.8,18-12.8,18S350.7,814.3,352.8,816"/>
		<path class="st3" d="M417.7,754.4c0,0,8.7,6.4,6.3,16c-2.5,9.7,6.3,12.8,6.3,12.8s7.2-0.8,8.1-7c0.9-6.3,2.1-8.5,0.8-12.5
			c-1.3-4-6-10.4-6-10.4s-2.2-5.7,5-3c7.2,2.7,9.1-2.9,9.1-2.9s5.2-4.2,3.8,2.7c-1.4,6.9,7.2,4.3,7.2,4.3s8.3-3.8,6.1,2.5
			c-2.2,6.3,2.6,7.8,2.6,7.8s7,0.6,11.8-2.6c4.8-3.2,3.6,5.8,3.6,5.8s2.6,3.2,4.3-2.7c1.7-6,6.2-0.4,6.2-0.4s7.9,1.8,4.9-7.8
			c-3-9.6-23.4-21.9-23.4-21.9s-7.8-2.5-11.5-7.8c-3.7-5.3-9.4-8.8-7.8-22.3s-5.9-22.7-5.9-22.7s-8.8,1.4-13.7,39.7
			c0,0,0.2,10.4,7,12.9c6.8,2.5-3.5,3.5-3.5,3.5s-2.2-4.3-3.7-7s-5.3,3.7-5.3,3.7s-2.2,1.4,1.8,2.3c3.9,1,0.6,6.5,0.6,6.5
			s-3.9,3.1-4.9-0.6c-1-3.7-8.6,7.4-8.6,7.4S417.6,752.2,417.7,754.4"/>
		<path class="st3" d="M467.5,841.9c0,0-0.2-12.1-9.5-13.5c-9.3-1.4,11.4-15.3,11.4-15.3s2-0.3-1.2,6.7c-3.1,6.9,6.8,0.1,6.8,0.1
			s-1.7-4.6-2.7-4.8c-1-0.3,4.7-2.6,4.7-2.6s15.3-2.6,5.1-7.2c-10.2-4.6-18.8-14.1-18.8-14.1s-8.6-5.3-3-17.9
			c5.6-12.5,11.1,8.5,11.1,8.5s3.5,6.1,12-4.6c8.5-10.7,12,4.8,12,4.8s-1,6.1-8,5.7c-6.9-0.4,1.7,19.8,1.7,19.8s1.2,2.1,6.3,2.5
			c5.1,0.4,9.3,13.6,9.3,13.6s2.6,7-7.8,12.4c-10.4,5.3-10.7-0.4-10.7-0.4s-3.3-4-3.5,2.5c-0.3,6.5-0.1,3.7-0.1,3.7H467.5z"/>
		<path class="st3" d="M404,694.3c0,0,3.5,15.5,19.6,10.2c16-5.3,1.6-41.3,1.6-41.3s-4.9-5.3-3.7,10.4c1.2,15.7-8.4-6.7-8.4-6.7
			s-4.5-10.6-9,2.7C399.5,683,404,694.3,404,694.3"/>
		<path class="st3" d="M357.7,715c0,0-7.2-15.8,2.2-20.9c9.4-5.1,19.2,7,19.2,7s2,4.9-2.9,10c-4.9,5.1,9.8,15.8,9.8,15.8
			s4.9,2.2,7.2,0c2.3-2.2,0,6.8,0,6.8s-11.5-3.3-15.5-8c-3.9-4.7-4.9-11.7-9-11.3C364.5,714.8,360,716.8,357.7,715"/>
		<path class="st3" d="M358.2,677.2c0,0-14.1-0.4-4-8.9c0,0,5.2-2.5,7.3,1.8c2.1,4.3,10.4-14,10.4-14s-0.3-6.5-9.5-2
			c-9.3,4.6-12.4-1-12.4-1s-1.4-11.2,1.6-19.4c3-8.2-11.7-2.1-11.7-2.1s-5.2,3.7-1.7,12.4c3.5,8.7,7.2,21.3,9,21.7
			c1.8,0.4-2.2,6.4-0.3,8.5C348.8,676.3,361.4,681.7,358.2,677.2"/>
		<path class="st3" d="M469.3,658.7c0,0-7-2.6-3.8,3.6c3.3,6.3,9.4,1.6,8.9,3.1c-0.5,1.6-13.6,1.8-13.6,1.8s-6.7,0.8,1.3,2.6
			c8,1.8,12,6.7,17.9,2.9c5.9-3.8,5.3-6.7,6.9-5.1c1.6,1.6-1.7,7.8,0.7,13.3c2.3,5.5,7.6,9.1,6.8,3c-0.8-6.1-7.3,3.6-4-18.6
			c0,0,1.7-5.3,6.5,0.3c4.8,5.6,12.4-9.4,12.4-9.4s6-5.6-4.4-2c-10.4,3.6-10.6-1.2-10.6-1.2s-6.5,2.5-0.4-8.4
			c6.1-11,16.7-10.3,11.7-15.7c-5-5.3-8.6-5.2-12-4c-3.4,1.2-2,9-1.3,10.4c0.7,1.4-7.3,8.3-8.7,5.9c-1.4-2.5-1.3,7.3-1.3,7.3
			s-0.7,3.9-5.7,0.9s0.8,4.8,0.8,4.8s2,1.1,6.5,0c4.6-1.1-2,3.8-2,3.8S477.3,661.7,469.3,658.7"/>
		<path class="st3" d="M297.6,482.9c0,0,3.1,5.5,5.5,4.5c2.3-1,3,9.4,3,9.4s0.8,3.4,4.2,0c3.4-3.4,4.2-7.8,7.2-6.2
			c3,1.6,5.9,0.5,2-9.7c-3.9-10.2-7.9-8.4-9-3.3c-1.1,5.1-6,5.4-7.8,3.8c-1.9-1.6-3.7-2.2-4.5-1.2
			C297.4,481.2,297.6,482.9,297.6,482.9"/>
		<path class="st3" d="M151.7,582.7c0,0-1.7,10.8,3.1,13.6c4.8,2.7-4.6,8.6-4.6,8.6s-7.8,4.8,3,3.7c10.7-1.2,12.8,3.1,12.8,3.1
			s5.3,4.2,8,1c2.6-3.1-1.6-9.4-1.6-9.4s-1.8-5.1,6.1-4.3c8,0.8,4.4-16.3,4.4-16.3s-3-2.6,2.1-4.4c5.1-1.8-4.3-8.5-4.3-8.5
			s-6.4,2.9-5.1,9s-10-1.7-10-1.7s5.9-11.9-2-8.5c-7.8,3.4-8.7,8.2-6.8,9.3C158.9,578.9,156.1,584.2,151.7,582.7"/>
	</g>
	<g id="Stad" class="st0">
		<path class="st4" d="M486.4,544.8c0,0,10.8-0.5,12.7-12.9c2-12.3,9-13.5,9-13.5s5.9-19.8,1.4-21.5c-4.5-1.8,4.1-1-2.3-3.1
			c-6.5-2.2-6.9-7.8-6.9-7.8s-9.7,16.5-26.6,18.3c0,0-5.6-4.2-10.3-4.2c-4.6-0.1,6.6,4.7,2.9,10.8c-3.7,6.1-11.3,3.3-11.3,3.3
			s0.4,9,7.2,9.4s3.3-4.1,7.8-2.3s-0.8,4.3,3.7,5.3c4.5,1,4.5,6.5,4.5,6.5s4.3,3.6,8.6,0c4.3-3.6-0.2,6.6-0.2,6.6
			S487.8,542.5,486.4,544.8"/>
		<path class="st4" d="M508.3,442.4c0,0,5.2,10.4,2.9,12.1c-2.3,1.8-4.8-0.9-4.8-0.9s-3.2-1.1-4.2,0.4c0,0-4.2-1.2-5.1-1.5
			C497,452.6,499,442.7,508.3,442.4"/>
		<path class="st4" d="M395.9,242.9c0,0-3.4-4.4-6.8-3.9c0,0-7.2-8.1,3.4-15.6c0,0,5.7,2.6,9.8,1.3c4.1-1.3,1.4,3.9,1.1,4.8
			c-0.3,0.9-3.8,4-3.8,4s-3.8,0.2-3.7,3.5C396.2,240.2,395.9,242.9,395.9,242.9"/>
		<path class="st4" d="M407.1,228.3c0,0,1.8-4.6,2.7-3c0.9,1.6,2,2.4,2,2.4s-3.8,4.2-3.8,11.1c0.1,7-5.2,4.5-5.2,4.5
			s-8.5-7.2-2.7-7.9C406,234.8,407.1,228.3,407.1,228.3"/>
		<path class="st4" d="M352.8,201.6c0,0,2.3-5.4,5.2-7.4c3-2,3,0.8,3,0.8s1.6,4.6,4.8,5.5c3.1,0.9,3.8,5.7,3.8,5.7s1.2,3.6,6.4,5
			c5.2,1.4,2.9,5.1,2.9,5.1s-2.7,0-5.5,1.3c-2.8,1.2-1.5-5.2-1.5-5.2s-1.4-2.4-2.7-3.1c-1.3-0.7-4.4-3.6-4.4-3.6s-1.6,0.5-2.4,1.3
			c-0.8,0.8-4.9-4.2-4.9-4.2s0.6-3.3-1.3-2.9c-1.9,0.5-2.5,2.3-2.5,2.3S352.5,202.2,352.8,201.6"/>
		<path class="st4" d="M79.2,119c0,0,1.7-2.4,6.6-4.7c4.9-2.4,7.1-6.7,7.1-6.7s4.3-1.7,4.5,0.3c0.3,2-1.9,6.3,1.9,6.4
			c3.8,0.1,3.5,5.8,8.9,2.1c5.3-3.7,5.8-5.2,6.9-4.1s4.6,4.1,3.4,10.1c0,0-5.7,2.3-9,1.1s-1.5,5.5-1.5,5.5s-3.3,2.7-6.5-1.6
			c-3.1-4.3-5.1,3.6-5.1,3.6s-0.1,0.8-7.1-2.5c-6.9-3.3-7.2-4.9-7.2-4.9S78.9,121,79.2,119"/>
		<path class="st4" d="M223.2,147.2c0,0-1.8-4.3,0.3-7.1c2.1-2.8,4,0.4,5.3-4.3c0,0-0.4-1.5-2-2.5c-1.5-1,3.6-1.7,3.6-1.7
			s3.4-1,1.4,3.8c-2,4.7-0.2,7.3-0.2,7.3s1.4,1.8-4,4.5C227.7,147.2,227.2,149.7,223.2,147.2"/>
		<path class="st4" d="M185.7,261.5c0,0,4.2-2.1,11-2.8c6.8-0.7,7.2,3.3,7.2,3.3s-0.5,3.9,2,3.4c2.5-0.5-1.2,5-1.2,5.3
			s-2.5,0.3-8-1.5c0,0-2-4.4-4.2-3.9c-2.2,0.5-4.2-2-4.2-2S185,262.5,185.7,261.5"/>
		<path class="st4" d="M253.3,593.3c0,0,3.2,4.8,7-0.9c3.8-5.7,4.5-16.9,1.2-18.4c-3.3-1.5-14.4,7.1-14.4,7.1s1.5,5.9-1.7,4.4
			c-3.2-1.5-4,4.2-4,4.2s1.8,2.8,5.5-0.1C250.6,586.6,253.3,593.3,253.3,593.3"/>
		<path class="st4" d="M300.6,469.1c0,0-2.1,3.7-0.5,7.6c1.6,4,4.5,2.1,4.5,2.1s-1.6-5,1.5-5.9c3-0.9,6.8-1.4,0.6-3.8
			C300.4,466.7,300.6,469.1,300.6,469.1"/>
		<path class="st4" d="M25.2,440.9c0,0,4.8-2.6,4.3-7.7s4.4,3.8,4.4,3.8s3,2.2,4.6-5.4c1.6-7.6,8.6-13.3,8.6-13.3s7.7-4.5,8.1,3.1
			c0.4,7.6-3.1,13.7,0,13.5c3.1-0.2,8.9-1.7,7.3,2.4c-1.6,4.1-6.8,6.1,1.2,5.4s6.9,3.8,0,5.1c-6.9,1.3-7.6,0.3-5.6,2.8
			c2.1,2.5-7,2.7-8.4,1c-1.4-1.8-2.6,3.5-0.1,5c2.5,1.5-7.4,3.8-7.4,3.8s-6.8,1.8-2.1-7.2c4.7-9,1.2-10.4-4.4-10.2
			C30.1,443.3,18.7,442.1,25.2,440.9"/>
		<path class="st4" d="M140.9,378.3c0,0,0.1,4.1,7.5-4.5c7.4-8.6,0-8,0-8l-7.5,5.9C140.9,371.7,134.6,373.8,140.9,378.3"/>
		<path class="st4" d="M386.8,738.8c0,0-3-5.2,7.9-5c11,0.2,6.6-7.6,6.6-7.6s-1.7-5.1,2,0c3.6,5.1,9.5,13.7,0,19.2
			c-9.5,5.5-5.8-1.3-5.8-1.3s4.7-6.1-0.7-4.3C391.3,741.6,386.8,738.8,386.8,738.8"/>
		<path class="st4" d="M292.6,774.5c0,0-2.7-13.4,2.7-15.1c5.5-1.7,6.1-4,6.1-4s2.1,1.8,2,6.8c-0.1,5,8.7-1.6,8.7-1.6s4.2,1,0,3.8
			c-4.2,2.7-8.7,5.9-10.8,4.3c-2.1-1.6-5.2,5.9-5.2,5.9S293.7,777.5,292.6,774.5"/>
		<path class="st4" d="M112.3,701.1c0,0-2.2-8.2,4.4-7.8s8.5,2.1,8.5,2.1s-0.5,2.3,4.2,0.8c4.7-1.6-1.4,3.4-1.4,3.4s-3,1.3,0.3,4
			c3.3,2.7,1.8,6.4,1.8,6.4s-4.6,0-7.8-5c0,0-4.3-4.3-5.1-3.4S112.3,701.1,112.3,701.1"/>
		<path class="st4" d="M52.2,784.4c0,0,1.8-6.3,6.6-6.9c4.8-0.7,3.5-7.2,3.5-7.2s1.7-3.8,2.6,2.5c1,6.4,1.3,4,3.3,6.2
			c2.1,2.2-4.1,9.6-4.1,9.6s-4.3,10.3-7.1,3.7c0,0-0.9-2.5-0.9-6C56.2,782.8,50.5,788,52.2,784.4"/>
		<path class="st4" d="M444.4,795c0,0-0.9,1.8,4,4.8c5,3,1.3,10.2,11.5,4.7c10.2-5.5,6.1-9.5,6.1-9.5s-4-1.3-7,0.9s-4.2,3.9-5.2,1.6
			C452.9,795.1,444.4,795,444.4,795"/>
		<path class="st4" d="M477.6,636.2c0,0-2.2-4.1,4.1-5.9c6.3-1.8,1.3-15.5,1.3-15.5s-7.1,4.6-7.3,13.1
			C475.4,636.5,477.6,636.2,477.6,636.2"/>
		<path class="st4" d="M492.3,588.3c0,0,11.1-24.4,25.6-35l8.2-8.5v6.7c0,0-2.1,0.1-6.1,4.7c-4,4.6,3.9-0.3,4.2,0.7
			c0.3,0.9,3.1,2.3,0.4,3.5c-2.7,1.2-6.3-0.8-6.5,1.2c-0.3,2-5.2,4.8-5,1.8s-2.1-1-2.3,0.9c-0.3,2-1.2,7.4-2.2,6.4c-1-1-2.1-1-3,1.8
			c-0.9,2.9-3.7,3.8-4.2,4.7c-0.5,0.9-3.1,2.6-3.4,5.2C497.6,585,491.9,592.4,492.3,588.3"/>
		<path class="st4" d="M208.8,470c-0.6-0.9-6.3-6.5,0.9-7.2s6.1,3,6,3.6c-0.1,0.6-0.7,2.3,2.5,1.7c3.1-0.7-0.9,3-0.9,3
			S210.8,473,208.8,470"/>
		<path class="st4" d="M312.1,327.8c0,0,6.5-5.9,9.8,0c3.3,5.9,11.1,2.2,11.1,2.2s4.8-3.5,2.7,1.8c-2.1,5.3-5.3,3.5-2.2,8.5
			c3.1,5,3.9,9-0.7,5.1s-7.2-11.9-11.7-9.3c-4.6,2.5-2,16.1-4.7,10.4c-2.7-5.7-5.7-11.2-4.3-13.8C313.6,330,312.1,327.8,312.1,327.8
			"/>
	</g>
</g>
</svg>
