<svg xmlns="http://www.w3.org/2000/svg" viewBox="0 0 527 842.04"><defs><style>.cls-1{fill:#2980b9;}</style></defs><title>vector-water</title><g id="Laag_2" data-name="Laag 2"><g id="Laag_1-2" data-name="Laag 1"><g id="Water"><path class="cls-1" d="M0,0V.11H104.22l-4,7.44s-4,5.34,3.79,10.69,5.34,8.48,2.87,14.09S91,35.59,91,35.59s-9-5.87-24-6.13-3.26,9.91-3.26,9.91,7.39,9.25,9,18.15,5.53,5.82,5.53,5.82S86,56.91,93.52,67s4.63-.78,4.63-.78-3.45-6.39,4,0,4.24,6.13,2.35,10.11A17.83,17.83,0,0,0,103,84.76s1.18,4.57,5.16,6.26,4.15,7.24,4.15,7.24-1.37,11,1.23,12.08a9.37,9.37,0,0,1,4,4.06s-1,4.11,9.68,9.2,5.48-5.48,5.48-5.48-.88-5.38-3.52-7.53-3.13-6.56-2.84-8.32a4,4,0,0,1,2-2.64s20.83-6.16,31.11-5S182,87.4,182,87.4s25.95-23.51,24.13-16.07,18,3.75,18.45,3.65,10.05-3.65,10.05-3.65l8.15.65c-.91,19.43,26.48,47.61,26.48,47.61,8.87,3,24.93,13.27,26.8,14.64a8,8,0,0,0,4,1.45c6.75.54,15,8.95,15,8.95s4.89,8.61,10.07,12.12,22.43,20.66,28,27S358,193,358,193s-.52.87,1.21.5,1.83,1.65,1.83,1.65a9.52,9.52,0,0,0,6.06,6.22c2.11,1.73,2.49,5,2.49,5,1.56,3.44,5.48,4.63,5.48,4.63s3.08.61,4,2.35a3.12,3.12,0,0,1-.12,3.13c2.69-.59,6,.8,6,.8s8.79,4.32,9.68,5.82,7.14,1.56,8,1.56a4.84,4.84,0,0,1,1.65.13c1,.2-.17,3.25-.77,4.8s-3.78,4-3.78,4c-5.83-.43-3.72,9.39-3.72,9.39s6.14,7.4,8.64,15.62,4.73,8,6.07,9,7.57-7.24,14.12-10.57,6.07,7.44,15,8,4.4,9.25,2,7.88-13.89,5.38-13.89,5.38-5.18,7.14-11.25,7.14S396,272.85,388.3,261.5s-17.73-9.13-17.73-9.13-24,3.78-30-1.3-22.83,1.82-22.83,1.82-18.52,20.22-27.39,15.8S259,270.05,259,270.05l1.44,8.67s.13,11.87,10,14a27,27,0,0,1,15.29,10.11s18.52,14.35,29.35,16.43,30.78,16.63,34.37,14.42,13.3-.46,15.86-1.19,11.34-3.83,11.34-3.83a75.26,75.26,0,0,0,9-7.18c10.95-6,13.3,4.83,13.3,4.83s6.91,10.43-5.87,18.91-9,12.13-9,12.13,19.83,3.26,27.65.91,4.44-8.08,3.52-10.33-12.26-10.4-5.73-15,12.13,2.87,12.13,2.87c24.78,43,27.91,34.66,27.91,34.66,21,2.06,33.55,5.77,33.55,5.77,25.54,13.31,26.42,40.31,26.42,40.31s-4,11.93,7,28.27,8.71,7.34,8.71,7.34-.4-5.77-1.76-6.46-2.84-3.81-4.41-8.71-.78-17.8-.78-17.8-.29-13.11,3.13-17.32,2.25-5,2.25-5-2.64-5.38-1.27-9.49-1.08-3.82-1.08-3.82-7.43,0-10.76-1.47a27.91,27.91,0,0,1-6.36-4.2s-10.56-12.13-6.55-19a27.64,27.64,0,0,0,3.42-14.48s-1.27-10.56,3-16.43S520,321.31,520,321.31s4.89-6.26,3.53-8a4,4,0,0,1-.69-3.6s1.57-14.1-.78-17.53-.69-5.87-.69-5.87c3.43-6.35-.29-5.77-.29-5.77s-9-3.71-9-8.12-7.36-7.19-7.36-7.19-5,.27-5.85-1.07S486,261.08,486,261.08c-1.3-.52-20.48-2.22-20.48-2.22s-5.57.1-10.33-.36-3.72-2.93-3.72-2.93,5-8.81,3.52-13.44-13.11.4-13.11.4-11.41,6.52-14.15,6.25-11.63,6.79-11.63,6.79-7.41,3.27-8.27,1.71-.46-8.44-.46-8.44,1.2-6.38-2-5-7.32-5.61-7.32-5.61-1.06-3.08,3.37-3.4,5.33-5.42,5.33-5.42.9-5,2.46-4.63a15.23,15.23,0,0,1,4,2.06s15.45,9.91,23.87,4.69,18.78-6.75,18.78-6.75c4.24,2.77,12.91-2.25,12.91-2.25,3.92-26.22,29.74-25.43,29.74-25.43,12.62-9.79,20.32-11.82,22.7-12.52a9.83,9.83,0,0,1,4.8-.05V504.09s-4.46-.68-7,1.08-1.37,5.63-1.37,5.63l.88,1.07s3.37.2,3.13,5.77,4.41,4.89,4.41,4.89v3.53s-3.19,9.73-2.78,11.93,2.78,7,2.78,7v20h1V0Z"/><path class="cls-1" d="M353.77,835.52s-7-17.75-4.43-30.37,23.08-21.62,23.08-21.62S404.8,767.46,410.64,757s16.4-11.47,21.1-36.39,6.65-30.52,6.65-30.52,2.35-2.22-6-9.65,15-34.7,15-34.7,5.29-17.28,10.6-24.32,7.27-31.82,7.27-31.82,4.89-14.94,11.94-16.51,16-28.17,16-28.17,2.59-2.34,5-9.34,1.1-13.1,9.91-17.08c0,0,4.5-1,9.49-7.72l.88,1.07s-5.09,7-10.18,9.29c0,0-3,.59-3.71,2.25s-3.13,2.25-4,11.06-6.66,15.94-6.66,15.94-2.54,2.06-5.77,10.18a37.69,37.69,0,0,1-8.51,12.91s-5.87,2.94-5.67,5.19c0,0-2.74,5.74-4.6,5.57s-3.23,11.15-3.23,11.15-.49,10.08-1.66,13.11-4.6,12.23-4.6,12.23-6.65,11.15-6.85,13-3.42,9.39-3.42,9.39a14.29,14.29,0,0,1-4,7.54c-3.33,3-10.37,16.72-10.37,16.72s-4.57,9.1-1.6,9.89a32.62,32.62,0,0,0,5.41,5c2.25,1.37,5-4.3,5-4.3a96.1,96.1,0,0,0,5.48-16c2.15-8.8,17.9-26.21,17.9-26.21s7.54-3.52,9-22.89,10.57-27,10.57-27,1.07,0,4.11-6.07S502.83,561,502.83,561s7.43-9.88,12-13.11S521.8,532,521.8,532s3.45-8.23,4.22-9.51v3.53s-3.14,10.27-2.75,12.22a42.87,42.87,0,0,0,2.75,6.66s-6.07,6.65-9.2,9.39-1.38.18-7.69,7.33-7.58,10.08-7.58,10.08-6.94,10.76-9.29,16.63a22.79,22.79,0,0,1-6.06,7c-4.11,3.14-7.34,15.07-7.34,15.07s-2.16,12-3.19,16.24-7.38,11-7.38,11-6.75,7.05-8.12,10.08-6.06,6.6-8.51,14.6-7.92,21.2-7.92,21.2-4.56,15.1-6.13,24.14-2.67,14.31-2.48,17.93-5.48,8.12-5.48,8.12-2.1,3.57-1.76,6.8c0,0,.54,1.58-3,2.74a33.93,33.93,0,0,0-6.8,8.51c-2.5,4.74-7.34,10.42-22.7,23.43,0,0-12.22,7.14-19.86,9.58s-18.29,14.87-18.29,14.87-3,5.87-3.72,7.34-2.54,6.46-1.46,8.32c0,0-.49,6.75,3.52,15.26,0,0,3.62,9.69,3.32,11.35l-2.05,0a33.69,33.69,0,0,0-3.1-6.48"/><path class="cls-1" d="M300.52,827.33l7.94-3.24s2.72-8.66-11.95-10.13c0,0-6.65-7.83-2-16.05s-8.7.59-8.7.59-.49,3.52,2.54,3.33-.49,4.89-.49,4.89-2.35,3.13-.1,5-2.44,5.18-2.44,5.18-2.25,2.35,1.47,2,3,3.42,3,3.42-.36,2.16,2-.58,8.64,5.64,8.64,5.64"/><path class="cls-1" d="M210.82,782.21s5.91,12.28,9.83,11.79c0,0,1.2-.28.7.33a4.56,4.56,0,0,1,3.34.24s6.67-.23,6.38-5.56-5.83-9.34-5.83-9.34-5.52-3.91-9.78-.93-5.72,1.39-4.64,3.47"/><path class="cls-1" d="M250.34,685.41s-1.18-9,3.91-14.87c0,0,1.37-2.93.68-8.21s4.41-6.17,4.41-6.17a36.82,36.82,0,0,0,2-8.41c.3-3.91,4.21-3.32,4.21-3.32s2.25-7.15-1.57-4-6.65,8.61-6.45,9.4-4.31,5.47-5.58,3.81-5.28,13.5-5.28,13.5a3,3,0,0,0,1.17,3.91c2.35,1.47,1.18,9.79,1.08,11s-1.76,4.5,1.47,3.42"/><path class="cls-1" d="M249.55,623.39s2,4.89,5.09,2.45,5.09-11.91,5.09-11.91,1.15-10.69-3.49-15.48a6.49,6.49,0,0,1-2-4,4.94,4.94,0,0,1-1-1c-.36-.56-1.39-3.67-3.53-4.33,0,0-1.23-.72-3,.71,0,0-.62,5.72.42,6.37s1.14,8.91,1.14,8.91.1,14.51,1.27,18.32"/><path class="cls-1" d="M4.6,478s-2.55,11.84,6.75,8.81,15.26-13.6,15.26-13.6.59-.78.68-4.21,2.06-3.81,2.06-3.81a13.09,13.09,0,0,0,5.08-10.47c.1-7.14,4.7-5.67,4.7-5.67a2.11,2.11,0,0,0,0-3.23c-1.76-1.66-.6-2.55-.6-2.55a37.1,37.1,0,0,0-4.1-.07l-4.33-.16c-.13,0-2.12,7.08-4.37,8.45s-2.47,9.24-2.47,9.24-2.13,3.58-3.7,4-5.77,7.43-7.23,9.19S4.91,474.5,4.6,478"/><path class="cls-1" d="M98.61,594.11s-.13,4.17,1.82,2,4.7-6.66,6.27-3.79,1.82,4.18,6.13.13,9.78-7.3,1.69-7.95-10.82-2.48-3.39-6.91,17.22-10.31,6.13-6.79-15.78,8.09-15.78,8.09-2.74,2.57-2.87,4.35-1.44,7.78,0,10.91"/><path class="cls-1" d="M142.83,548.46s8.21-5.28,10.95-11.15,13.3-8.61,13.3-8.61,3.9-7.44-6.56-1.57-11.37,7.48-13,4.91-4.33-3.15-4.72,5.66-2.55,9.39,0,10.76"/><path class="cls-1" d="M196.17,387.76s3.79-12,10.57-6,15.13,22.18,11.48,26.35S195,390.55,196.17,387.76"/><path class="cls-1" d="M0,189.37s7.17-1.17,8.74,0,6.13,5.09,10.17,5.22,11.74,1,12.79,0,16.17-4.7,21-2.09,14.6,8.61,15.13,12.39,19,20.61,19,20.61,14.22,1.31,19.7,0,10.56,7.7,10.56,7.7,6,8.74,10.57,10.3,20.34,2.35,22.56,3.91,10.7,3.53,14.74,7.18,24.91,5,31.7,4.24,7,2.75,7,2.75.09,2.45,6.3-1.07a10.34,10.34,0,0,1,11.15.24s12,3.87,15.69,1.66,5.35,6.26,5.35,6.26,0,2.61,7.56,3.66a15,15,0,0,1,10.7,6.39l-1.29-8.66s-14.91-8.33-11.74-17.62c0,0,3.12-6,19.42-5.29s18.2-30.79,18.2-30.79-1.57-5.21-5.87-15.38-14.09-8.41-1.18-16.24,18.8,6.26,19,10.17,24.45,6.26,24.45,6.26,6-5.89,2.54-20.93-3.24-14.75-3.24-14.75-2.31-4.41-3.42-1.68c0,0-1,3.71-1.88,5.93s-3.26,1.43-3.26,1.43-2.42,1.24-3.07-6.06A71.07,71.07,0,0,0,307,152.85s.06-4.38-1.63-5.51-2.34-3.49-6.06-5.06c0,0-8.78-.74-13.7-3.89,0,0-6.48-2.1-6.48,3.55s2.47,14.43,2.47,14.43.29,3-5.28,7.44-15.95,8.41-16.53,11.34-4.5-.78-4.41-2.54-1.27-1.47,1.76-6,11.94-16.17,5.09-18.21-24.94,12.15-25.63,15.77-11.44-2.74-11.12-5.16,5.61-10,9.07-11.47,5.28-17,5.28-17,4.7-10.17,3.2-15.19-10.31-8-11.94-12.72,3.52-9.13,3.85-14-.48-17.54-.48-17.54-5.35,2.18-9.92,3.75c0,0-2.19,10.93-1,17.71s5.47,16.82,10.69,19.17,5.35,5.28,5.35,5.28-.07,6.59-3,10.77c0,0-2.81,6.26-2.15,10.63s-8.09,11.73-8.09,11.73a10.61,10.61,0,0,0-4.63,8.48c-.39,6.07,10,14.09,10,14.09s14.68,5.54,15.79,10.83S254.93,194,254.93,194a85,85,0,0,0,1.64,9.07c1.3,5.8,13.95,6.91,13.95,6.91s7.83.13,3.33,16.76c0,0-2.15,4-8.55,4a15.1,15.1,0,0,0-7,6.85c-2.35,4.89-13,5.22-13,5.22s-7,7.34-10.11,5.87-16.82-2.48-26.67.91-16.76-1.11-16.76-1.11a18.08,18.08,0,0,0-11.81,3c-5.73,3.92-21-2.87-21.71-3.26s-13.31-7.11-17.61-7.63-18-4.38-19.7-9.67S109.76,221,94.5,221.42,69.36,198,69.36,198s-6.07-10.07-17-10.66-26.51,4.21-26.51,4.21-7.24,1.47-14.19-5.09-11.64-3-11.64-3Z"/><path class="cls-1" d="M427.82,734.14s-31.95-16.38-39.78-34.9S351.87,679,351.87,679s-1.65.24-5-4.71-11.43-20.49-10-36S340,612,343.7,604.41s41.21-33.26,41.21-33.26,8.61-10.43,10.57-27.52-12.26-32.83-12.26-32.83-15.92-23.12-14.48-33.95,8.61-26.35,14.09-30.39,4.86-25.13,4.86-25.13-4.51-3.92-6.12-3.68,1,17.46-1.09,21.37-10.83,17.35-14.09,26.22-3.88,18.52-1,21.52,6.77,12.92,6.77,12.92,10.7,15.91,12.26,17.34,8.61,11.77,4.7,19.65a54.88,54.88,0,0,0-3.65,11.79c-1,5.87-.59,14.37-7.83,19.61,0,0-3.17,4.84-12.25,11.11s-25.51,24.65-25.51,24.65-7.05,17.22-7.63,29.54,0,22.44,0,22.44.58,9.06,6.85,15.91,13.5,13.91,13.5,13.91,8.42,6.88,15.84,3.7,23.48,21.72,23.48,21.72,28,29.26,34.52,26.07"/></g></g></g></svg>